<?xml version="1.0" encoding="UTF-8" standalone="no"?>
<!-- Created with Inkscape (http://www.inkscape.org/) -->

<svg
   xmlns:dc="http://purl.org/dc/elements/1.1/"
   xmlns:cc="http://creativecommons.org/ns#"
   xmlns:rdf="http://www.w3.org/1999/02/22-rdf-syntax-ns#"
   xmlns:svg="http://www.w3.org/2000/svg"
   xmlns="http://www.w3.org/2000/svg"
   xmlns:sodipodi="http://sodipodi.sourceforge.net/DTD/sodipodi-0.dtd"
   xmlns:inkscape="http://www.inkscape.org/namespaces/inkscape"
   width="160"
   height="80"
   id="svg4046"
   version="1.1"
   inkscape:version="0.48.4 r9939"
   sodipodi:docname="glua_medium_orange.svg">
  <defs
     id="defs4048" />
  <sodipodi:namedview
     id="base"
     pagecolor="#ffffff"
     bordercolor="#666666"
     borderopacity="1.0"
     inkscape:pageopacity="0.0"
     inkscape:pageshadow="2"
     inkscape:zoom="5.59375"
     inkscape:cx="80"
     inkscape:cy="40"
     inkscape:document-units="px"
     inkscape:current-layer="layer1"
     showgrid="false"
     inkscape:window-width="1280"
     inkscape:window-height="743"
     inkscape:window-x="0"
     inkscape:window-y="31"
     inkscape:window-maximized="1" />
  <metadata
     id="metadata4051">
    <rdf:RDF>
      <cc:Work
         rdf:about="">
        <dc:format>image/svg+xml</dc:format>
        <dc:type
           rdf:resource="http://purl.org/dc/dcmitype/StillImage" />
        <dc:title></dc:title>
      </cc:Work>
    </rdf:RDF>
  </metadata>
  <g
     inkscape:label="Layer 1"
     inkscape:groupmode="layer"
     id="layer1"
     transform="translate(0,-972.36218)">
    <g
       transform="matrix(1.25,0,0,-1.25,91.62904,1019.9013)"
       id="g4480">
      <path
         inkscape:connector-curvature="0"
         transform="translate(48.0879,2.0957)"
         d="m 0,0 c 0,5.239 -1.804,9.373 -1.804,9.373 0,0 -0.261,1.356 -0.326,1.919 -0.096,0.79 -0.559,1.717 -0.559,1.717 l -1.166,2.77 c 0,0 -0.097,0.067 0.096,0.182 2.414,1.391 4.718,0.077 4.977,1.638 0.178,1.055 -3.229,3.021 -3.524,3.363 -0.978,1.142 -1.586,1.168 -1.586,1.168 0,0 0.209,0.667 0.139,1.679 -0.089,1.31 -0.641,1.846 -0.641,1.816 0,-0.099 0.306,0.108 0.266,0.202 -0.126,0.28 -0.288,0.235 -0.346,0.449 -0.389,1.456 -1.06,3.057 -2.214,4.357 -0.563,0.631 -3.061,2.392 -7.286,1.525 -4.284,-0.88 -5.486,-5.485 -5.554,-6.212 -0.318,-3.383 0.238,-3.853 -0.285,-5.469 -0.497,-1.523 -1.101,-4.592 -3.581,-7.313 -6.74,-7.396 -3.344,-23.618 -3.344,-23.618 0,0 -1.445,-2.698 -0.269,-2.724 0.996,-0.021 1.344,0.092 1.663,0.064 9.399,-0.861 9.185,-1.102 12.395,-0.867 2.293,0.168 4.698,0.618 6.674,1.51 2.462,1.111 3.683,2.092 4.606,4.21 C 0.476,-3.338 0,-1.59 0,0"
         style="fill:#ffffff;fill-opacity:1;fill-rule:nonzero;stroke:none"
         id="path602" />
      <path
         inkscape:connector-curvature="0"
         transform="translate(44.5127,-4.338796)"
         d="m 0,0 c -0.457,-0.641 -10.781,4.133 -14.443,3.188 -2.042,-0.524 -11.081,-6.426 -6.777,-9.723 0.225,-0.173 2.447,-0.833 9.616,-1.078 2.653,-0.094 2.903,0.069 7.95,0.86 1.003,0.159 6.513,6.357 7.069,9.85 L 0,0 z"
         style="fill:#ffffff;fill-opacity:1;fill-rule:nonzero;stroke:none"
         id="path606" />
      <path
         inkscape:connector-curvature="0"
         transform="translate(48.657196,-9.197196)"
         d="m 0,0 c 0.598,-0.752 -0.65,-0.785 -0.507,-1.233 0.229,-0.719 1.611,-0.844 1.263,-1.621 -0.68,-1.526 -2.676,-0.143 -3.105,-0.89 -0.283,-0.491 -0.037,-1.722 -0.756,-2.149 -0.087,-0.052 -1.067,-0.905 -4.539,2.858 -0.823,0.893 -5.086,2.322 -3.934,4.457 0.322,0.598 1.033,0.873 1.887,0.782 C -7.799,2.002 -7.19,1.55 -4.906,0.852 -4.106,0.607 -0.798,1.001 0,0"
         style="fill:#ffffff;fill-opacity:1;fill-rule:nonzero;stroke:none"
         id="path610" />
      <path
         inkscape:connector-curvature="0"
         transform="translate(49.165004,-1.8281)"
         d="m 0,0 c 0.673,-0.343 -0.21,-0.774 0.039,-1.048 0.399,-0.44 1.43,-0.077 1.436,-0.747 0.009,-1.312 -1.869,-0.976 -1.932,-1.653 -0.042,-0.445 0.538,-1.242 0.163,-1.784 -0.046,-0.068 -0.467,-0.997 -4.182,0.56 -0.881,0.368 -4.4,-0.004 -4.273,1.901 0.034,0.531 0.454,0.962 1.092,1.177 1.421,0.476 2.006,0.351 3.869,0.6 C -3.136,-0.909 -0.899,0.456 0,0"
         style="fill:#ffffff;fill-opacity:1;fill-rule:nonzero;stroke:none"
         id="path614" />
      <path
         inkscape:connector-curvature="0"
         transform="translate(-55.1485,18.2305)"
         d="m 0,0 -4.393,0 c -1.223,0 -2.272,-0.417 -3.148,-1.246 -0.875,-0.83 -1.311,-1.858 -1.311,-3.083 l 0,-17.639 c 0,-1.225 0.436,-2.252 1.311,-3.083 0.876,-0.83 1.925,-1.245 3.148,-1.245 L 0,-26.296 0,0 z m 5.248,3.936 0,-36.592 c 0,-2.448 -0.667,-4.396 -2.002,-5.838 -1.333,-1.443 -3.201,-2.163 -5.604,-2.163 l -7.74,0 0,3.933 6.753,0 c 1.008,0 1.805,0.34 2.395,1.018 0.591,0.678 0.885,1.54 0.885,2.591 l 0,2.884 -5.442,0 c -2.405,0 -4.437,0.788 -6.098,2.361 -1.663,1.574 -2.493,3.541 -2.493,5.902 l 0,17.639 c 0,2.361 0.842,4.329 2.525,5.902 1.683,1.574 3.725,2.363 6.133,2.363 l 10.688,0 z"
         style="fill:#ffffff;fill-opacity:1;fill-rule:nonzero;stroke:none"
         id="path618" />
      <path
         inkscape:connector-curvature="0"
         transform="translate(-378.7637,-419.0449)"
         d="m 336.141,453.014 5.247,0 0,-45.904 -5.247,0 0,45.904 z"
         style="fill:#ffffff;fill-opacity:1;fill-rule:nonzero;stroke:none"
         id="path620" />
      <path
         inkscape:connector-curvature="0"
         transform="translate(-10.818404,-11.9355)"
         d="M 0,0 -3.738,0 -4.723,2.23 C -5.379,2.057 -6.252,1.761 -7.347,1.346 -8.438,0.93 -9.356,0.611 -10.099,0.394 c -0.744,-0.219 -1.312,-0.372 -1.705,-0.459 -1.267,-0.262 -2.253,-0.394 -2.951,-0.394 -1.573,0 -2.743,0.546 -3.509,1.641 -0.765,1.091 -1.147,2.512 -1.147,4.261 l 0,28.659 5.248,0 0,-26.953 c 0,-1.532 0.129,-2.482 0.392,-2.852 0.263,-0.373 0.59,-0.558 0.983,-0.558 0.392,0 2.907,0.656 7.542,1.967 l 0,28.396 5.246,0 L 0,0 z"
         style="fill:#ffffff;fill-opacity:1;fill-rule:nonzero;stroke:none"
         id="path624" />
      <path
         inkscape:connector-curvature="0"
         d="M 0,0 0,-3.671 C 0,-4.853 0.437,-5.858 1.313,-6.689 2.187,-7.52 3.235,-7.934 4.46,-7.934 l 4.394,0 0,15.41 L 3.083,5.312 C 1.945,4.873 1.148,4.283 0.69,3.542 0.231,2.798 0,1.618 0,0 m -1.966,22.166 7.868,0 c 2.404,0 4.318,-0.711 5.738,-2.132 1.421,-1.422 2.132,-3.355 2.132,-5.803 l 0,-26.167 -9.771,0 c -2.404,0 -4.449,0.854 -6.132,2.559 -1.682,1.704 -2.523,3.846 -2.523,6.427 l 0,3.409 c 0,2.055 0.513,3.781 1.54,5.181 1.027,1.398 2.305,2.382 3.836,2.95 l 8.132,3.017 0,3.082 c 0,1.05 -0.32,1.912 -0.952,2.591 -0.632,0.677 -1.453,1.016 -2.459,1.016 l -7.409,0 0,3.87 z"
         style="fill:#ffffff;fill-opacity:1;fill-rule:nonzero;stroke:none"
         id="path628" />
    </g>
  </g>
</svg>
