<?xml version="1.0" encoding="UTF-8" standalone="no"?>
<!-- Created with Inkscape (http://www.inkscape.org/) -->

<svg
   xmlns:dc="http://purl.org/dc/elements/1.1/"
   xmlns:cc="http://creativecommons.org/ns#"
   xmlns:rdf="http://www.w3.org/1999/02/22-rdf-syntax-ns#"
   xmlns:svg="http://www.w3.org/2000/svg"
   xmlns="http://www.w3.org/2000/svg"
   xmlns:sodipodi="http://sodipodi.sourceforge.net/DTD/sodipodi-0.dtd"
   xmlns:inkscape="http://www.inkscape.org/namespaces/inkscape"
   width="185"
   height="290"
   id="svg4046"
   version="1.1"
   inkscape:version="0.48.4 r9939"
   sodipodi:docname="glua_big_bw.svg">
  <defs
     id="defs4048" />
  <sodipodi:namedview
     id="base"
     pagecolor="#ffffff"
     bordercolor="#666666"
     borderopacity="1.0"
     inkscape:pageopacity="0.0"
     inkscape:pageshadow="2"
     inkscape:zoom="1.8482759"
     inkscape:cx="92.5"
     inkscape:cy="145"
     inkscape:document-units="px"
     inkscape:current-layer="layer1"
     showgrid="false"
     inkscape:window-width="1280"
     inkscape:window-height="743"
     inkscape:window-x="0"
     inkscape:window-y="31"
     inkscape:window-maximized="1" />
  <metadata
     id="metadata4051">
    <rdf:RDF>
      <cc:Work
         rdf:about="">
        <dc:format>image/svg+xml</dc:format>
        <dc:type
           rdf:resource="http://purl.org/dc/dcmitype/StillImage" />
        <dc:title></dc:title>
      </cc:Work>
    </rdf:RDF>
  </metadata>
  <g
     inkscape:label="Layer 1"
     inkscape:groupmode="layer"
     id="layer1"
     transform="translate(0,-762.36218)">
    <g
       transform="matrix(1.25,0,0,-1.25,84.7691,995.99755)"
       id="g4219">
      <path
         inkscape:connector-curvature="0"
         id="path38"
         style="fill:#000000;fill-opacity:1;fill-rule:nonzero;stroke:none"
         d="m 0,0 c 0,22.848 -7.854,40.875 -7.854,40.875 0,0 -1.148,5.911 -1.436,8.364 -0.403,3.44 -2.426,7.489 -2.426,7.489 l -5.091,12.077 c 0,0 -0.425,0.294 0.427,0.787 10.521,6.068 20.557,0.34 21.696,7.145 0.775,4.604 -14.082,13.167 -15.365,14.665 -4.269,4.979 -6.918,5.088 -6.918,5.088 0,0 0.909,2.912 0.61,7.324 -0.389,5.715 -2.799,8.054 -2.799,7.917 0,-0.426 1.334,0.48 1.152,0.883 -0.542,1.22 -1.25,1.028 -1.499,1.956 -1.698,6.354 -4.624,13.334 -9.657,18.996 -2.449,2.754 -13.34,10.438 -31.759,6.659 -18.687,-3.835 -23.928,-23.917 -24.226,-27.089 -1.385,-14.752 1.041,-16.799 -1.248,-23.847 -2.158,-6.639 -4.795,-20.022 -15.607,-31.891 -29.39,-32.255 -14.583,-102.98 -14.583,-102.98 0,0 -6.293,-11.764 -1.174,-11.876 4.347,-0.096 5.86,0.403 7.255,0.277 40.981,-3.753 40.048,-4.806 54.046,-3.778 10,0.732 20.486,2.693 29.095,6.58 10.735,4.85 16.068,9.127 20.088,18.358 C 2.078,-14.548 0,-6.928 0,0"
         transform="translate(60.7754,38.0098)" />
      <path
         inkscape:connector-curvature="0"
         id="path42"
         style="fill:#000000;fill-opacity:1;fill-rule:nonzero;stroke:none"
         d="m 0,0 c -1.996,-2.795 -47.011,18.023 -62.979,13.909 -8.899,-2.291 -48.312,-28.034 -29.549,-42.405 0.982,-0.754 10.673,-3.63 41.926,-4.705 11.577,-0.399 12.657,0.31 34.669,3.761 4.376,0.687 28.402,27.709 30.826,42.948 L 0,0 z"
         transform="translate(45.189504,9.954096)" />
      <path
         inkscape:connector-curvature="0"
         id="path46"
         style="fill:#000000;fill-opacity:1;fill-rule:nonzero;stroke:none"
         d="m 0,0 c 2.612,-3.276 -2.83,-3.419 -2.209,-5.372 0.994,-3.126 7.022,-3.682 5.51,-7.073 -2.966,-6.646 -11.664,-0.612 -13.545,-3.878 -1.234,-2.143 -0.156,-7.501 -3.29,-9.367 -0.382,-0.228 -4.656,-3.948 -19.787,12.461 -3.592,3.892 -22.181,10.127 -17.162,19.434 1.403,2.603 4.511,3.807 8.228,3.411 C -34.003,8.739 -31.343,6.77 -21.383,3.72 -17.9,2.652 -3.475,4.372 0,0"
         transform="translate(63.2598,-11.235296)" />
      <path
         inkscape:connector-curvature="0"
         id="path50"
         style="fill:#000000;fill-opacity:1;fill-rule:nonzero;stroke:none"
         d="m 0,0 c 2.941,-1.49 -0.905,-3.374 0.178,-4.568 1.734,-1.911 6.23,-0.333 6.257,-3.256 0.052,-5.726 -8.144,-4.255 -8.422,-7.208 -0.181,-1.937 2.342,-5.418 0.711,-7.778 -0.198,-0.289 -2.039,-4.349 -18.234,2.44 -3.844,1.61 -19.182,-0.014 -18.638,8.289 0.152,2.32 1.98,4.199 4.771,5.133 6.19,2.071 8.737,1.532 16.862,2.609 C -13.674,-3.962 -3.916,1.99 0,0"
         transform="translate(65.471704,20.8994)" />
      <path
         inkscape:connector-curvature="0"
         id="path54"
         style="fill:#ffffff;fill-opacity:1;fill-rule:nonzero;stroke:none"
         d="M 0,0 -1.42,0 C -1.815,0 -2.154,-0.134 -2.438,-0.403 -2.72,-0.671 -2.861,-1.002 -2.861,-1.397 l 0,-5.699 c 0,-0.394 0.141,-0.727 0.423,-0.996 0.284,-0.267 0.623,-0.402 1.018,-0.402 L 0,-8.494 0,0 z m 1.694,1.271 0,-11.82 c 0,-0.79 -0.215,-1.42 -0.645,-1.886 -0.431,-0.465 -1.036,-0.699 -1.813,-0.699 l -2.499,0 0,1.272 2.182,0 c 0.324,0 0.583,0.11 0.773,0.327 0.191,0.221 0.286,0.499 0.286,0.838 l 0,0.932 -1.757,0 c -0.779,0 -1.434,0.254 -1.971,0.762 -0.536,0.509 -0.806,1.145 -0.806,1.907 l 0,5.699 c 0,0.762 0.273,1.397 0.817,1.906 0.545,0.509 1.203,0.762 1.98,0.762 l 3.453,0 z"
         transform="translate(-41.9824,72.153304)" />
      <path
         inkscape:connector-curvature="0"
         id="path58"
         style="fill:#ffffff;fill-opacity:1;fill-rule:nonzero;stroke:none"
         d="m 0,0 0,-1.249 c -0.367,0 -1.164,-0.298 -2.394,-0.891 l 0,-9.024 -1.695,0 0,11.016 1.314,0 0.192,-0.784 c 0.861,0.423 1.453,0.685 1.777,0.784 C -0.48,-0.05 -0.211,0 0,0"
         transform="translate(-33.870104,73.5732)" />
      <path
         inkscape:connector-curvature="0"
         id="path62"
         style="fill:#ffffff;fill-opacity:1;fill-rule:nonzero;stroke:none"
         d="M 0,0 -1.208,0 -1.526,0.72 C -1.736,0.664 -2.021,0.569 -2.374,0.436 -2.727,0.301 -3.023,0.198 -3.264,0.126 -3.503,0.058 -3.687,0.007 -3.813,-0.021 -4.224,-0.105 -4.54,-0.148 -4.767,-0.148 c -0.507,0 -0.886,0.176 -1.133,0.531 -0.246,0.351 -0.371,0.809 -0.371,1.376 l 0,9.257 1.695,0 0,-8.706 c 0,-0.496 0.043,-0.802 0.128,-0.922 0.084,-0.119 0.189,-0.181 0.317,-0.181 0.128,0 0.939,0.213 2.437,0.637 l 0,9.172 1.694,0 L 0,0 z"
         transform="translate(-26.2226,62.4092)" />
      <path
         inkscape:connector-curvature="0"
         id="path66"
         style="fill:#ffffff;fill-opacity:1;fill-rule:nonzero;stroke:none"
         d="m 0,0 -1.398,0 0,-8.494 1.398,0 c 0.396,0 0.733,0.135 1.017,0.402 0.282,0.269 0.424,0.602 0.424,0.996 l 0,5.699 c 0,0.395 -0.142,0.726 -0.424,0.994 C 0.733,-0.134 0.396,0 0,0 m -1.398,-13.134 -1.696,0 0,14.405 3.433,0 c 0.775,0 1.436,-0.253 1.98,-0.762 C 2.862,0 3.134,-0.635 3.134,-1.397 l 0,-5.699 C 3.134,-7.858 2.865,-8.49 2.33,-8.992 1.793,-9.494 1.136,-9.744 0.359,-9.744 l -1.757,0 0,-3.39 z"
         transform="translate(-20.587904,72.153304)" />
      <path
         inkscape:connector-curvature="0"
         id="path70"
         style="fill:#ffffff;fill-opacity:1;fill-rule:nonzero;stroke:none"
         d="m 0,0 c 0,-0.495 0.13,-0.873 0.392,-1.135 0.26,-0.261 0.618,-0.391 1.07,-0.391 0.452,0 0.808,0.13 1.068,0.391 0.262,0.262 0.393,0.64 0.393,1.135 l 0,5.634 C 2.923,6.128 2.792,6.506 2.53,6.767 2.27,7.028 1.914,7.16 1.462,7.16 1.01,7.16 0.652,7.028 0.392,6.767 0.13,6.506 0,6.128 0,5.634 L 0,0 z M 4.575,0 C 4.575,-0.892 4.303,-1.586 3.761,-2.088 3.216,-2.589 2.45,-2.84 1.462,-2.84 c -0.988,0 -1.756,0.251 -2.299,0.752 C -1.38,-1.586 -1.652,-0.892 -1.652,0 l 0,5.634 c 0,0.889 0.272,1.587 0.815,2.088 0.543,0.5 1.311,0.751 2.299,0.751 0.988,0 1.754,-0.251 2.299,-0.751 C 4.303,7.221 4.575,6.523 4.575,5.634 L 4.575,0 z"
         transform="translate(-14.211904,65.1006)" />
      <path
         inkscape:connector-curvature="0"
         id="path74"
         style="fill:#ffffff;fill-opacity:1;fill-rule:nonzero;stroke:none"
         d="m 0,0 0,25.695 3.229,0 0,-23.272 7.527,0 L 10.756,0 0,0 z"
         transform="translate(-46.623,29.2588)" />
      <path
         inkscape:connector-curvature="0"
         id="path76"
         style="fill:#ffffff;fill-opacity:1;fill-rule:nonzero;stroke:none"
         d="m 337.039,583.971 3.229,0 0,-25.695 -3.229,0 0,25.695 z"
         transform="translate(-369.749,-529.0166)" />
      <path
         inkscape:connector-curvature="0"
         id="path80"
         style="fill:#ffffff;fill-opacity:1;fill-rule:nonzero;stroke:none"
         d="m 0,0 -4.625,0 -6.793,23.348 0,-23.348 -3.229,0 0,25.695 5.396,0 5.982,-22.209 0,22.209 3.269,0 L 0,0 z"
         transform="translate(-9.7666,29.2588)" />
      <path
         inkscape:connector-curvature="0"
         id="path84"
         style="fill:#ffffff;fill-opacity:1;fill-rule:nonzero;stroke:none"
         d="m 0,0 3.229,0 0,-19.968 c 0,-1.175 0.289,-2.062 0.863,-2.663 0.574,-0.6 1.378,-0.898 2.405,-0.898 1.027,0 1.835,0.298 2.423,0.898 0.587,0.601 0.881,1.488 0.881,2.663 l 0,19.968 3.229,0 0,-19.346 c 0,-4.404 -2.172,-6.606 -6.515,-6.606 C 2.171,-25.952 0,-23.75 0,-19.346 L 0,0 z"
         transform="translate(-5.801704,54.954096)" />
      <path
         inkscape:connector-curvature="0"
         id="path88"
         style="fill:#ffffff;fill-opacity:1;fill-rule:nonzero;stroke:none"
         d="m 0,0 -4.404,-10.277 -3.233,0 5.802,13.508 -5.066,12.187 3.23,0 L 0,6.572 l 3.744,8.846 3.23,0 -5.322,-12.187 5.946,-13.508 -3.267,0 L 0,0 z"
         transform="translate(17.544904,39.536104)" />
      <path
         inkscape:connector-curvature="0"
         id="path92"
         style="fill:#ffffff;fill-opacity:1;fill-rule:nonzero;stroke:none"
         d="M 0,0 -1.063,0 -1.342,0.634 C -1.529,0.583 -1.776,0.5 -2.088,0.383 -2.398,0.263 -2.66,0.174 -2.871,0.111 -3.081,0.05 -3.242,0.006 -3.354,-0.02 c -0.362,-0.072 -0.642,-0.11 -0.839,-0.11 -0.448,0 -0.782,0.154 -0.998,0.466 -0.218,0.31 -0.327,0.714 -0.327,1.212 l 0,8.145 1.493,0 0,-7.662 c 0,-0.434 0.037,-0.706 0.111,-0.81 0.074,-0.107 0.168,-0.158 0.278,-0.158 0.113,0 0.828,0.185 2.145,0.558 l 0,8.072 L 0,9.693 0,0 z"
         transform="translate(-41.1738,13.227504)" />
      <path
         inkscape:connector-curvature="0"
         id="path96"
         style="fill:#ffffff;fill-opacity:1;fill-rule:nonzero;stroke:none"
         d="m 0,0 1.154,0 0.168,-0.542 c 0.173,0.05 0.449,0.131 0.828,0.242 0.379,0.113 0.65,0.186 0.812,0.225 0.484,0.137 0.923,0.204 1.313,0.204 0.392,0 0.694,-0.155 0.906,-0.466 0.212,-0.31 0.317,-0.714 0.317,-1.211 l 0,-8.145 -1.492,0 0,7.66 c 0,0.36 -0.026,0.612 -0.075,0.755 -0.049,0.141 -0.149,0.214 -0.298,0.214 -0.15,0 -0.863,-0.199 -2.145,-0.597 l 0,-8.032 L 0,-9.693 0,0 z"
         transform="translate(-38.935504,22.920904)" />
      <path
         inkscape:connector-curvature="0"
         id="path98"
         style="fill:#ffffff;fill-opacity:1;fill-rule:nonzero;stroke:none"
         d="m 338.38,551.938 1.491,0 0,-9.693 -1.491,0 0,9.693 z m 0,3.073 1.491,0 0,-1.49 -1.491,0 0,1.49 z"
         transform="translate(-369.749,-529.0166)" />
      <path
         inkscape:connector-curvature="0"
         id="path102"
         style="fill:#ffffff;fill-opacity:1;fill-rule:nonzero;stroke:none"
         d="m 0,0 1.419,7.811 1.547,0 -2.219,-9.694 -1.51,0 -2.217,9.694 1.546,0 L 0,0 z"
         transform="translate(-25.5,15.1104)" />
      <path
         inkscape:connector-curvature="0"
         id="path106"
         style="fill:#ffffff;fill-opacity:1;fill-rule:nonzero;stroke:none"
         d="m 0,0 0,-2.405 c 0.286,0.087 0.59,0.172 0.913,0.252 0.322,0.082 0.543,0.14 0.661,0.177 0.118,0.037 0.249,0.08 0.392,0.13 0.142,0.05 0.226,0.114 0.252,0.186 0.074,0.2 0.112,0.411 0.112,0.636 L 2.33,0 C 2.33,0.771 1.943,1.155 1.173,1.155 0.826,1.155 0.543,1.056 0.326,0.857 0.107,0.658 0,0.372 0,0 m 0.969,-6.431 2.011,0 0,-1.118 -2.235,0 c -0.682,0 -1.227,0.204 -1.631,0.616 -0.403,0.41 -0.606,0.961 -0.606,1.659 l 0,4.958 c 0,0.806 0.223,1.44 0.67,1.901 0.448,0.459 1.113,0.688 1.995,0.688 0.884,0 1.544,-0.229 1.986,-0.688 C 3.601,1.124 3.82,0.49 3.82,-0.316 l 0,-0.858 c 0,-0.894 -0.54,-1.491 -1.622,-1.79 L 0,-3.579 0,-5.405 c 0,-0.298 0.09,-0.543 0.27,-0.737 0.179,-0.193 0.414,-0.289 0.699,-0.289"
         transform="translate(-19.943304,20.7764)" />
      <path
         inkscape:connector-curvature="0"
         id="path110"
         style="fill:#ffffff;fill-opacity:1;fill-rule:nonzero;stroke:none"
         d="m 0,0 0,-1.099 c -0.323,0 -1.026,-0.261 -2.107,-0.784 l 0,-7.939 -1.491,0 0,9.693 1.156,0 0.168,-0.69 c 0.757,0.373 1.28,0.601 1.565,0.69 C -0.422,-0.044 -0.187,0 0,0"
         transform="translate(-11.0342,23.0498)" />
      <path
         inkscape:connector-curvature="0"
         id="path114"
         style="fill:#ffffff;fill-opacity:1;fill-rule:nonzero;stroke:none"
         d="m 0,0 c 0,0.572 -0.365,1.137 -1.099,1.696 -0.297,0.224 -0.602,0.459 -0.913,0.709 -0.733,0.61 -1.1,1.379 -1.1,2.311 0,0.658 0.221,1.203 0.663,1.631 0.439,0.428 1.033,0.644 1.779,0.644 l 1.622,0 0,-1.118 -1.344,0 c -0.88,0 -1.323,-0.418 -1.323,-1.25 0,-0.511 0.367,-1.032 1.102,-1.566 C -0.314,2.834 -0.019,2.594 0.28,2.34 0.58,2.085 0.833,1.75 1.046,1.334 1.256,0.916 1.363,0.447 1.363,-0.074 c 0,-0.883 -0.234,-1.541 -0.7,-1.976 -0.466,-0.435 -1.122,-0.652 -1.967,-0.652 l -1.808,0 0,1.118 1.585,0 C -0.508,-1.584 0,-1.057 0,0"
         transform="translate(-7.084,15.929704)" />
      <path
         inkscape:connector-curvature="0"
         id="path116"
         style="fill:#ffffff;fill-opacity:1;fill-rule:nonzero;stroke:none"
         d="m 365.703,551.938 1.492,0 0,-9.693 -1.492,0 0,9.693 z m 0,3.073 1.492,0 0,-1.49 -1.492,0 0,1.49 z"
         transform="translate(-369.749,-529.0166)" />
      <path
         inkscape:connector-curvature="0"
         id="path120"
         style="fill:#ffffff;fill-opacity:1;fill-rule:nonzero;stroke:none"
         d="M 0,0 0,7.829 -1.658,7.27 C -1.981,7.17 -2.209,7.011 -2.34,6.795 -2.468,6.575 -2.535,6.232 -2.535,5.76 l 0,-4.344 c 0,-0.446 0.132,-0.794 0.393,-1.043 C -1.882,0.124 -1.528,0 -1.08,0 L 0,0 z m 0,11.93 1.492,0 0,-13.048 -2.889,0 c -0.783,0 -1.416,0.229 -1.902,0.688 -0.483,0.461 -0.725,1.076 -0.725,1.846 l 0,4.642 c 0,0.533 0.144,0.987 0.437,1.361 0.292,0.373 0.655,0.626 1.091,0.764 L 0,9.059 0,11.93 z"
         transform="translate(3.540096,14.345704)" />
      <path
         inkscape:connector-curvature="0"
         id="path124"
         style="fill:#ffffff;fill-opacity:1;fill-rule:nonzero;stroke:none"
         d="M 0,0 0,-1.044 C 0,-1.379 0.123,-1.665 0.372,-1.901 0.62,-2.138 0.918,-2.256 1.266,-2.256 l 1.249,0 0,4.379 L 0.875,1.51 C 0.552,1.386 0.326,1.218 0.194,1.006 0.064,0.794 0,0.459 0,0 m -0.56,6.301 2.237,0 c 0.682,0 1.227,-0.203 1.63,-0.606 C 3.711,5.29 3.912,4.741 3.912,4.043 l 0,-7.436 -2.775,0 c -0.686,0 -1.265,0.243 -1.744,0.727 -0.478,0.485 -0.718,1.094 -0.718,1.826 l 0,0.97 c 0,0.584 0.147,1.075 0.439,1.473 0.292,0.397 0.656,0.676 1.09,0.838 l 2.311,0.856 0,0.877 c 0,0.299 -0.09,0.545 -0.269,0.737 -0.182,0.193 -0.415,0.288 -0.7,0.288 l -2.106,0 0,1.102 z"
         transform="translate(8.1084,16.620104)" />
      <path
         inkscape:connector-curvature="0"
         id="path128"
         style="fill:#ffffff;fill-opacity:1;fill-rule:nonzero;stroke:none"
         d="M 0,0 0,7.829 -1.659,7.27 C -1.982,7.17 -2.209,7.011 -2.34,6.795 -2.47,6.575 -2.536,6.232 -2.536,5.76 l 0,-4.344 c 0,-0.446 0.132,-0.794 0.393,-1.043 C -1.883,0.124 -1.528,0 -1.081,0 L 0,0 z m 0,11.93 1.491,0 0,-13.048 -2.889,0 c -0.782,0 -1.416,0.229 -1.902,0.688 -0.483,0.461 -0.725,1.076 -0.725,1.846 l 0,4.642 c 0,0.533 0.146,0.987 0.437,1.361 0.291,0.373 0.655,0.626 1.09,0.764 L 0,9.059 0,11.93 z"
         transform="translate(17.929696,14.345704)" />
      <path
         inkscape:connector-curvature="0"
         id="path132"
         style="fill:#ffffff;fill-opacity:1;fill-rule:nonzero;stroke:none"
         d="m 0,0 0,-2.405 c 0.285,0.087 0.589,0.172 0.911,0.252 0.324,0.082 0.544,0.14 0.663,0.177 0.118,0.037 0.248,0.08 0.39,0.13 0.143,0.05 0.227,0.114 0.253,0.186 0.074,0.2 0.11,0.411 0.11,0.636 L 2.327,0 C 2.327,0.771 1.944,1.155 1.172,1.155 0.824,1.155 0.543,1.056 0.324,0.857 0.107,0.658 0,0.372 0,0 m 0.968,-6.431 2.013,0 0,-1.118 -2.237,0 c -0.683,0 -1.226,0.204 -1.631,0.616 -0.404,0.41 -0.605,0.961 -0.605,1.659 l 0,4.958 c 0,0.806 0.222,1.44 0.671,1.901 0.448,0.459 1.112,0.688 1.993,0.688 0.883,0 1.545,-0.229 1.985,-0.688 C 3.599,1.124 3.82,0.49 3.82,-0.316 l 0,-0.858 c 0,-0.894 -0.541,-1.491 -1.622,-1.79 L 0,-3.579 0,-5.405 C 0,-5.703 0.089,-5.948 0.269,-6.142 0.45,-6.335 0.684,-6.431 0.968,-6.431"
         transform="translate(22.8516,20.7764)" />
      <path
         inkscape:connector-curvature="0"
         id="path136"
         style="fill:#ffffff;fill-opacity:1;fill-rule:nonzero;stroke:none"
         d="M 0,0 0,7.828 -1.659,7.27 C -1.982,7.169 -2.21,7.012 -2.34,6.794 -2.47,6.577 -2.536,6.231 -2.536,5.761 l 0,-4.345 c 0,-0.448 0.131,-0.794 0.392,-1.043 C -1.883,0.124 -1.528,0 -1.081,0 L 0,0 z m 0,11.929 1.49,0 0,-13.046 -2.889,0 c -0.783,0 -1.416,0.228 -1.901,0.687 -0.484,0.461 -0.727,1.075 -0.727,1.846 l 0,4.642 c 0,0.533 0.147,0.988 0.438,1.361 0.293,0.373 0.655,0.626 1.091,0.764 L 0,9.059 l 0,2.87 z"
         transform="translate(-42.645504,-1.248)" />
      <path
         inkscape:connector-curvature="0"
         id="path140"
         style="fill:#ffffff;fill-opacity:1;fill-rule:nonzero;stroke:none"
         d="m 0,0 0,-2.403 c 0.285,0.086 0.59,0.17 0.915,0.25 0.321,0.083 0.541,0.14 0.66,0.179 0.117,0.037 0.248,0.078 0.392,0.13 0.141,0.05 0.226,0.113 0.252,0.186 0.073,0.199 0.111,0.41 0.111,0.634 L 2.33,0 C 2.33,0.771 1.944,1.156 1.174,1.156 0.826,1.156 0.544,1.057 0.326,0.858 0.109,0.659 0,0.374 0,0 m 0.969,-6.43 2.013,0 0,-1.117 -2.237,0 c -0.683,0 -1.226,0.204 -1.63,0.614 -0.405,0.411 -0.606,0.962 -0.606,1.659 l 0,4.959 c 0,0.806 0.223,1.44 0.671,1.9 0.447,0.46 1.112,0.689 1.994,0.689 0.883,0 1.544,-0.229 1.986,-0.689 0.441,-0.46 0.661,-1.094 0.661,-1.9 l 0,-0.859 c 0,-0.893 -0.541,-1.49 -1.622,-1.788 L 0,-3.578 0,-5.404 C 0,-5.703 0.09,-5.948 0.27,-6.14 0.45,-6.334 0.684,-6.43 0.969,-6.43"
         transform="translate(-37.7256,5.1816)" />
      <path
         inkscape:connector-curvature="0"
         id="path144"
         style="fill:#ffffff;fill-opacity:1;fill-rule:nonzero;stroke:none"
         d="M 0,0 0,-1.043 C 0,-1.378 0.125,-1.664 0.373,-1.9 0.621,-2.137 0.921,-2.256 1.268,-2.256 l 1.249,0 0,4.382 L 0.876,1.51 C 0.554,1.387 0.327,1.217 0.197,1.009 0.065,0.795 0,0.46 0,0 m -0.56,6.301 2.239,0 c 0.683,0 1.225,-0.202 1.63,-0.606 C 3.711,5.29 3.915,4.741 3.915,4.046 l 0,-7.437 -2.777,0 c -0.684,0 -1.264,0.242 -1.743,0.727 -0.479,0.483 -0.718,1.093 -0.718,1.824 l 0,0.971 c 0,0.583 0.146,1.075 0.437,1.472 0.293,0.398 0.656,0.677 1.092,0.839 l 2.311,0.859 0,0.875 c 0,0.298 -0.089,0.543 -0.271,0.736 -0.18,0.192 -0.413,0.289 -0.699,0.289 l -2.107,0 0,1.1 z"
         transform="translate(-28.779296,1.0254)" />
      <path
         inkscape:connector-curvature="0"
         id="path148"
         style="fill:#ffffff;fill-opacity:1;fill-rule:nonzero;stroke:none"
         d="m 0,0 1.417,7.811 1.548,0 -2.22,-9.692 -1.51,0 -2.216,9.692 1.546,0 L 0,0 z"
         transform="translate(-20.670904,-0.4844)" />
      <path
         inkscape:connector-curvature="0"
         id="path152"
         style="fill:#ffffff;fill-opacity:1;fill-rule:nonzero;stroke:none"
         d="m 0,0 0,-2.403 c 0.286,0.086 0.591,0.17 0.913,0.25 0.323,0.083 0.543,0.14 0.663,0.179 0.117,0.037 0.247,0.078 0.39,0.13 0.144,0.05 0.226,0.113 0.252,0.186 0.074,0.199 0.112,0.41 0.112,0.634 L 2.33,0 C 2.33,0.771 1.944,1.156 1.174,1.156 0.825,1.156 0.542,1.057 0.326,0.858 0.107,0.659 0,0.374 0,0 m 0.97,-6.43 2.013,0 0,-1.117 -2.237,0 c -0.683,0 -1.226,0.204 -1.632,0.614 -0.405,0.411 -0.604,0.962 -0.604,1.659 l 0,4.959 c 0,0.806 0.222,1.44 0.671,1.9 0.447,0.46 1.11,0.689 1.993,0.689 0.883,0 1.544,-0.229 1.984,-0.689 0.442,-0.46 0.663,-1.094 0.663,-1.9 l 0,-0.859 c 0,-0.893 -0.541,-1.49 -1.622,-1.788 L 0,-3.578 0,-5.404 C 0,-5.703 0.09,-5.948 0.271,-6.14 0.451,-6.334 0.683,-6.43 0.97,-6.43"
         transform="translate(-15.1162,5.1816)" />
      <path
         inkscape:connector-curvature="0"
         id="path154"
         style="fill:#ffffff;fill-opacity:1;fill-rule:nonzero;stroke:none"
         d="m 359.944,536.343 1.491,0 0,-9.691 -1.491,0 0,9.691 z m 0,3.075 1.491,0 0,-1.49 -1.491,0 0,1.49 z"
         transform="translate(-369.749,-529.0166)" />
      <path
         inkscape:connector-curvature="0"
         id="path158"
         style="fill:#ffffff;fill-opacity:1;fill-rule:nonzero;stroke:none"
         d="m 0,0 0,-1.1 c -0.325,0 -1.026,-0.26 -2.107,-0.782 l 0,-7.939 -1.492,0 0,9.691 1.156,0 0.167,-0.689 c 0.758,0.372 1.279,0.601 1.567,0.689 C -0.424,-0.043 -0.188,0 0,0"
         transform="translate(-2.477496,7.456104)" />
      <path
         inkscape:connector-curvature="0"
         id="path162"
         style="fill:#ffffff;fill-opacity:1;fill-rule:nonzero;stroke:none"
         d="m 0,0 c 0,-0.435 0.115,-0.767 0.346,-0.997 0.228,-0.23 0.543,-0.344 0.94,-0.344 0.398,0 0.711,0.114 0.941,0.344 0.229,0.23 0.346,0.562 0.346,0.997 l 0,4.958 C 2.573,5.393 2.456,5.727 2.227,5.956 1.997,6.186 1.684,6.302 1.286,6.302 0.889,6.302 0.574,6.186 0.346,5.956 0.115,5.727 0,5.393 0,4.958 L 0,0 z m 4.026,0 c 0,-0.782 -0.241,-1.394 -0.717,-1.835 -0.479,-0.44 -1.153,-0.661 -2.023,-0.661 -0.87,0 -1.545,0.221 -2.022,0.661 -0.479,0.441 -0.717,1.053 -0.717,1.835 l 0,4.958 c 0,0.784 0.238,1.396 0.717,1.836 0.477,0.441 1.152,0.662 2.022,0.662 0.87,0 1.544,-0.221 2.023,-0.662 C 3.785,6.354 4.026,5.742 4.026,4.958 L 4.026,0 z" />
    </g>
  </g>
</svg>
