<?xml version="1.0" encoding="UTF-8" standalone="no"?>
<!-- Created with Inkscape (http://www.inkscape.org/) -->

<svg
   xmlns:dc="http://purl.org/dc/elements/1.1/"
   xmlns:cc="http://creativecommons.org/ns#"
   xmlns:rdf="http://www.w3.org/1999/02/22-rdf-syntax-ns#"
   xmlns:svg="http://www.w3.org/2000/svg"
   xmlns="http://www.w3.org/2000/svg"
   xmlns:sodipodi="http://sodipodi.sourceforge.net/DTD/sodipodi-0.dtd"
   xmlns:inkscape="http://www.inkscape.org/namespaces/inkscape"
   width="65"
   height="45"
   id="svg4046"
   version="1.1"
   inkscape:version="0.48.4 r9939"
   sodipodi:docname="glua_small_orange.svg">
  <defs
     id="defs4048" />
  <sodipodi:namedview
     id="base"
     pagecolor="#ffffff"
     bordercolor="#666666"
     borderopacity="1.0"
     inkscape:pageopacity="0.0"
     inkscape:pageshadow="2"
     inkscape:zoom="11.911111"
     inkscape:cx="32.5"
     inkscape:cy="22.5"
     inkscape:document-units="px"
     inkscape:current-layer="layer1"
     showgrid="false"
     inkscape:window-width="1280"
     inkscape:window-height="743"
     inkscape:window-x="0"
     inkscape:window-y="31"
     inkscape:window-maximized="1" />
  <metadata
     id="metadata4051">
    <rdf:RDF>
      <cc:Work
         rdf:about="">
        <dc:format>image/svg+xml</dc:format>
        <dc:type
           rdf:resource="http://purl.org/dc/dcmitype/StillImage" />
        <dc:title></dc:title>
      </cc:Work>
    </rdf:RDF>
  </metadata>
  <g
     inkscape:label="Layer 1"
     inkscape:groupmode="layer"
     id="layer1"
     transform="translate(0,-1007.3622)">
    <g
       transform="matrix(1.25,0,0,-1.25,51.957627,1033.9107)"
       id="g4814">
      <path
         inkscape:connector-curvature="0"
         id="path464"
         style="fill:#ffffff;fill-opacity:1;fill-rule:nonzero;stroke:none"
         d="m 0,0 -2.466,0 c -0.687,0 -1.275,-0.233 -1.766,-0.699 -0.491,-0.467 -0.737,-1.043 -0.737,-1.732 l 0,-9.898 c 0,-0.689 0.246,-1.264 0.737,-1.732 0.491,-0.465 1.079,-0.698 1.766,-0.698 L 0,-14.759 0,0 z m 2.945,2.209 0,-20.536 c 0,-1.376 -0.375,-2.467 -1.123,-3.277 -0.748,-0.81 -1.797,-1.213 -3.146,-1.213 l -4.344,0 0,2.206 3.791,0 c 0.564,0 1.012,0.191 1.344,0.57 0.33,0.382 0.496,0.867 0.496,1.455 l 0,1.619 -3.052,0 c -1.352,0 -2.492,0.442 -3.425,1.325 -0.933,0.883 -1.397,1.987 -1.397,3.313 l 0,9.898 c 0,1.327 0.472,2.431 1.417,3.314 0.942,0.883 2.09,1.326 3.438,1.326 l 6.001,0 z"
         transform="translate(-30.950204,10.2314)" />
      <path
         inkscape:connector-curvature="0"
         id="path466"
         style="fill:#ffffff;fill-opacity:1;fill-rule:nonzero;stroke:none"
         d="m 333.202,263.822 2.943,0 0,-25.764 -2.943,0 0,25.764 z"
         transform="translate(-357.1221,-244.7588)" />
      <path
         inkscape:connector-curvature="0"
         id="path470"
         style="fill:#ffffff;fill-opacity:1;fill-rule:nonzero;stroke:none"
         d="M 0,0 -2.098,0 -2.65,1.254 C -3.02,1.155 -3.51,0.988 -4.123,0.756 -4.736,0.522 -5.252,0.344 -5.668,0.222 -6.085,0.099 -6.403,0.014 -6.626,-0.035 c -0.71,-0.147 -1.263,-0.222 -1.654,-0.222 -0.885,0 -1.54,0.307 -1.97,0.921 -0.43,0.613 -0.645,1.411 -0.645,2.393 l 0,16.084 2.946,0 0,-15.126 c 0,-0.861 0.072,-1.395 0.22,-1.602 0.146,-0.211 0.331,-0.314 0.551,-0.314 0.222,0 1.633,0.369 4.234,1.106 l 0,15.936 2.944,0 L 0,0 z"
         transform="translate(-6.0703,-6.7002)" />
      <path
         inkscape:connector-curvature="0"
         id="path474"
         style="fill:#ffffff;fill-opacity:1;fill-rule:nonzero;stroke:none"
         d="m 0,0 0,-2.06 c 0,-0.665 0.246,-1.228 0.738,-1.695 0.491,-0.467 1.079,-0.699 1.766,-0.699 l 2.467,0 0,8.648 L 1.731,2.98 C 1.093,2.734 0.645,2.404 0.388,1.986 0.13,1.569 0,0.908 0,0 m -1.102,12.44 4.415,0 c 1.351,0 2.423,-0.401 3.221,-1.196 0.799,-0.8 1.195,-1.886 1.195,-3.258 l 0,-14.686 -5.482,0 c -1.35,0 -2.496,0.479 -3.441,1.437 -0.946,0.957 -1.417,2.157 -1.417,3.606 l 0,1.914 c 0,1.154 0.289,2.122 0.864,2.907 0.577,0.785 1.294,1.339 2.154,1.656 l 4.564,1.695 0,1.728 c 0,0.591 -0.18,1.071 -0.535,1.453 -0.356,0.383 -0.816,0.573 -1.38,0.573 l -4.158,0 0,2.171 z" />
    </g>
  </g>
</svg>
