<?xml version="1.0" encoding="UTF-8" standalone="no"?>
<!-- Created with Inkscape (http://www.inkscape.org/) -->

<svg
   xmlns:dc="http://purl.org/dc/elements/1.1/"
   xmlns:cc="http://creativecommons.org/ns#"
   xmlns:rdf="http://www.w3.org/1999/02/22-rdf-syntax-ns#"
   xmlns:svg="http://www.w3.org/2000/svg"
   xmlns="http://www.w3.org/2000/svg"
   xmlns:sodipodi="http://sodipodi.sourceforge.net/DTD/sodipodi-0.dtd"
   xmlns:inkscape="http://www.inkscape.org/namespaces/inkscape"
   width="45"
   height="32"
   id="svg4046"
   version="1.1"
   inkscape:version="0.48.4 r9939"
   sodipodi:docname="glua_small_black.svg">
  <defs
     id="defs4048" />
  <sodipodi:namedview
     id="base"
     pagecolor="#ffffff"
     bordercolor="#666666"
     borderopacity="1.0"
     inkscape:pageopacity="0.0"
     inkscape:pageshadow="2"
     inkscape:zoom="15.314286"
     inkscape:cx="22.5"
     inkscape:cy="17.5"
     inkscape:document-units="px"
     inkscape:current-layer="layer1"
     showgrid="false"
     inkscape:window-width="1280"
     inkscape:window-height="743"
     inkscape:window-x="0"
     inkscape:window-y="31"
     inkscape:window-maximized="1" />
  <metadata
     id="metadata4051">
    <rdf:RDF>
      <cc:Work
         rdf:about="">
        <dc:format>image/svg+xml</dc:format>
        <dc:type
           rdf:resource="http://purl.org/dc/dcmitype/StillImage" />
        <dc:title></dc:title>
      </cc:Work>
    </rdf:RDF>
  </metadata>
  <g
     inkscape:label="Layer 1"
     inkscape:groupmode="layer"
     id="layer1"
     transform="translate(0,-1020.3622)">
    <g
       transform="matrix(1.25,0,0,-1.25,35.691565,1039.1067)"
       id="g4930">
      <path
         inkscape:connector-curvature="0"
         id="path450"
         style="fill:#ff921e;fill-opacity:1;fill-rule:nonzero;stroke:none"
         d="m 0,0 -1.673,0 c -0.466,0 -0.865,-0.158 -1.198,-0.475 -0.333,-0.315 -0.5,-0.707 -0.5,-1.172 l 0,-6.712 c 0,-0.466 0.167,-0.856 0.5,-1.173 0.333,-0.317 0.732,-0.474 1.198,-0.474 L 0,-10.006 0,0 z m 1.995,1.498 0,-13.924 c 0,-0.931 -0.254,-1.673 -0.761,-2.221 -0.506,-0.548 -1.218,-0.824 -2.133,-0.824 l -2.945,0 0,1.497 2.57,0 c 0.382,0 0.686,0.13 0.911,0.387 0.224,0.259 0.337,0.587 0.337,0.986 l 0,1.098 -2.07,0 c -0.917,0 -1.689,0.299 -2.322,0.899 -0.632,0.598 -0.947,1.346 -0.947,2.245 l 0,6.712 c 0,0.899 0.32,1.647 0.96,2.246 0.639,0.598 1.419,0.899 2.333,0.899 l 4.067,0 z"
         transform="translate(-20.982504,6.9365)" />
      <path
         inkscape:connector-curvature="0"
         id="path452"
         style="fill:#ff921e;fill-opacity:1;fill-rule:nonzero;stroke:none"
         d="m 152.742,255.289 1.997,0 0,-17.469 -1.997,0 0,17.469 z"
         transform="translate(-168.96,-242.3633)" />
      <path
         inkscape:connector-curvature="0"
         id="path456"
         style="fill:#ff921e;fill-opacity:1;fill-rule:nonzero;stroke:none"
         d="M 0,0 -1.423,0 -1.798,0.851 C -2.048,0.783 -2.38,0.67 -2.796,0.513 -3.211,0.354 -3.561,0.232 -3.844,0.15 -4.127,0.067 -4.342,0.01 -4.492,-0.023 -4.975,-0.122 -5.35,-0.174 -5.614,-0.174 c -0.6,0 -1.045,0.207 -1.336,0.624 -0.291,0.417 -0.437,0.956 -0.437,1.623 l 0,10.905 1.996,0 0,-10.256 c 0,-0.583 0.049,-0.946 0.151,-1.086 0.098,-0.143 0.224,-0.212 0.374,-0.212 0.149,0 1.106,0.249 2.869,0.749 l 0,10.805 1.997,0 L 0,0 z"
         transform="translate(-4.115304,-4.543004)" />
      <path
         inkscape:connector-curvature="0"
         id="path460"
         style="fill:#ff921e;fill-opacity:1;fill-rule:nonzero;stroke:none"
         d="M 0,0 0,-1.396 C 0,-1.847 0.167,-2.229 0.5,-2.545 0.833,-2.861 1.232,-3.02 1.698,-3.02 l 1.672,0 0,5.864 L 1.174,2.021 C 0.741,1.854 0.437,1.63 0.263,1.347 0.088,1.063 0,0.616 0,0 m -0.747,8.435 2.993,0 C 3.161,8.435 3.889,8.164 4.43,7.623 4.971,7.082 5.241,6.346 5.241,5.414 l 0,-9.957 -3.718,0 c -0.915,0 -1.693,0.325 -2.334,0.975 -0.64,0.649 -0.959,1.463 -0.959,2.444 l 0,1.298 c 0,0.783 0.196,1.439 0.585,1.972 0.391,0.533 0.878,0.907 1.46,1.122 l 3.095,1.149 0,1.172 c 0,0.4 -0.121,0.726 -0.362,0.986 C 2.766,6.833 2.454,6.961 2.072,6.961 l -2.819,0 0,1.474 z" />
    </g>
  </g>
</svg>
