<?xml version="1.0" encoding="UTF-8" standalone="no"?>
<!-- Created with Inkscape (http://www.inkscape.org/) -->

<svg
   xmlns:dc="http://purl.org/dc/elements/1.1/"
   xmlns:cc="http://creativecommons.org/ns#"
   xmlns:rdf="http://www.w3.org/1999/02/22-rdf-syntax-ns#"
   xmlns:svg="http://www.w3.org/2000/svg"
   xmlns="http://www.w3.org/2000/svg"
   xmlns:sodipodi="http://sodipodi.sourceforge.net/DTD/sodipodi-0.dtd"
   xmlns:inkscape="http://www.inkscape.org/namespaces/inkscape"
   width="45"
   height="32"
   id="svg4046"
   version="1.1"
   inkscape:version="0.48.4 r9939"
   sodipodi:docname="glua_smaller_orange.svg">
  <defs
     id="defs4048" />
  <sodipodi:namedview
     id="base"
     pagecolor="#ffffff"
     bordercolor="#666666"
     borderopacity="1.0"
     inkscape:pageopacity="0.0"
     inkscape:pageshadow="2"
     inkscape:zoom="16.75"
     inkscape:cx="22.5"
     inkscape:cy="16"
     inkscape:document-units="px"
     inkscape:current-layer="layer1"
     showgrid="false"
     inkscape:window-width="1280"
     inkscape:window-height="743"
     inkscape:window-x="0"
     inkscape:window-y="31"
     inkscape:window-maximized="1" />
  <metadata
     id="metadata4051">
    <rdf:RDF>
      <cc:Work
         rdf:about="">
        <dc:format>image/svg+xml</dc:format>
        <dc:type
           rdf:resource="http://purl.org/dc/dcmitype/StillImage" />
        <dc:title></dc:title>
      </cc:Work>
    </rdf:RDF>
  </metadata>
  <g
     inkscape:label="Layer 1"
     inkscape:groupmode="layer"
     id="layer1"
     transform="translate(0,-1020.3622)">
    <g
       transform="matrix(1.25,0,0,-1.25,35.692128,1039.1061)"
       id="g4988">
      <path
         inkscape:connector-curvature="0"
         id="path492"
         style="fill:#ffffff;fill-opacity:1;fill-rule:nonzero;stroke:none"
         d="M 0,0 -1.673,0 C -2.139,0 -2.537,-0.16 -2.87,-0.475 -3.203,-0.791 -3.369,-1.183 -3.369,-1.648 l 0,-6.712 c 0,-0.466 0.166,-0.857 0.499,-1.174 0.333,-0.315 0.731,-0.473 1.197,-0.473 L 0,-10.007 0,0 z m 1.996,1.497 0,-13.923 c 0,-0.932 -0.254,-1.673 -0.762,-2.221 -0.505,-0.55 -1.217,-0.824 -2.132,-0.824 l -2.945,0 0,1.497 2.57,0 c 0.382,0 0.685,0.128 0.91,0.386 0.224,0.258 0.337,0.587 0.337,0.986 l 0,1.097 -2.071,0 c -0.915,0 -1.688,0.301 -2.32,0.9 -0.633,0.598 -0.948,1.346 -0.948,2.245 l 0,6.712 c 0,0.899 0.32,1.648 0.961,2.246 0.639,0.598 1.418,0.899 2.333,0.899 l 4.067,0 z"
         transform="translate(-20.983404,6.9366)" />
      <path
         inkscape:connector-curvature="0"
         id="path494"
         style="fill:#ffffff;fill-opacity:1;fill-rule:nonzero;stroke:none"
         d="m 397.718,254.323 1.995,0 0,-17.468 -1.995,0 0,17.468 z"
         transform="translate(-413.9355,-241.3984)" />
      <path
         inkscape:connector-curvature="0"
         id="path498"
         style="fill:#ffffff;fill-opacity:1;fill-rule:nonzero;stroke:none"
         d="M 0,0 -1.423,0 -1.796,0.849 C -2.048,0.782 -2.38,0.669 -2.796,0.513 -3.211,0.354 -3.56,0.232 -3.843,0.149 -4.126,0.066 -4.342,0.009 -4.492,-0.025 c -0.482,-0.099 -0.857,-0.15 -1.122,-0.15 -0.6,0 -1.044,0.207 -1.335,0.623 -0.291,0.417 -0.438,0.958 -0.438,1.623 l 0,10.906 1.997,0 0,-10.256 c 0,-0.583 0.049,-0.945 0.151,-1.086 0.097,-0.142 0.223,-0.212 0.373,-0.212 0.149,0 1.106,0.249 2.87,0.749 l 0,10.805 1.996,0 L 0,0 z"
         transform="translate(-4.116196,-4.542896)" />
      <path
         inkscape:connector-curvature="0"
         id="path502"
         style="fill:#ffffff;fill-opacity:1;fill-rule:nonzero;stroke:none"
         d="m 0,0 0,-1.397 c 0,-0.451 0.167,-0.833 0.501,-1.15 0.332,-0.315 0.73,-0.474 1.196,-0.474 l 1.673,0 0,5.864 L 1.175,2.02 C 0.741,1.853 0.437,1.63 0.263,1.346 0.088,1.063 0,0.615 0,0 m -0.747,8.434 2.993,0 C 3.161,8.434 3.89,8.163 4.429,7.621 4.971,7.081 5.241,6.345 5.241,5.413 l 0,-9.956 -3.718,0 c -0.915,0 -1.693,0.325 -2.333,0.975 -0.64,0.647 -0.961,1.462 -0.961,2.444 l 0,1.297 c 0,0.782 0.196,1.438 0.586,1.972 0.391,0.532 0.877,0.907 1.46,1.122 l 3.095,1.148 0,1.173 c 0,0.4 -0.121,0.727 -0.363,0.985 C 2.766,6.832 2.454,6.96 2.071,6.96 l -2.818,0 0,1.474 z" />
    </g>
  </g>
</svg>
