<?xml version="1.0" encoding="UTF-8" standalone="no"?>
<!-- Created with Inkscape (http://www.inkscape.org/) -->

<svg
   xmlns:dc="http://purl.org/dc/elements/1.1/"
   xmlns:cc="http://creativecommons.org/ns#"
   xmlns:rdf="http://www.w3.org/1999/02/22-rdf-syntax-ns#"
   xmlns:svg="http://www.w3.org/2000/svg"
   xmlns="http://www.w3.org/2000/svg"
   xmlns:sodipodi="http://sodipodi.sourceforge.net/DTD/sodipodi-0.dtd"
   xmlns:inkscape="http://www.inkscape.org/namespaces/inkscape"
   width="65"
   height="45"
   id="svg4046"
   version="1.1"
   inkscape:version="0.48.4 r9939"
   sodipodi:docname="glua_medium_bw_for_white_bg.svg">
  <defs
     id="defs4048" />
  <sodipodi:namedview
     id="base"
     pagecolor="#ffffff"
     bordercolor="#666666"
     borderopacity="1.0"
     inkscape:pageopacity="0.0"
     inkscape:pageshadow="2"
     inkscape:zoom="11.911111"
     inkscape:cx="32.5"
     inkscape:cy="22.5"
     inkscape:document-units="px"
     inkscape:current-layer="layer1"
     showgrid="false"
     inkscape:window-width="1280"
     inkscape:window-height="743"
     inkscape:window-x="0"
     inkscape:window-y="31"
     inkscape:window-maximized="1" />
  <metadata
     id="metadata4051">
    <rdf:RDF>
      <cc:Work
         rdf:about="">
        <dc:format>image/svg+xml</dc:format>
        <dc:type
           rdf:resource="http://purl.org/dc/dcmitype/StillImage" />
        <dc:title></dc:title>
      </cc:Work>
    </rdf:RDF>
  </metadata>
  <g
     inkscape:label="Layer 1"
     inkscape:groupmode="layer"
     id="layer1"
     transform="translate(0,-1007.3622)">
    <g
       transform="matrix(1.25,0,0,-1.25,51.957003,1033.9096)"
       id="g4756">
      <path
         inkscape:connector-curvature="0"
         id="path422"
         style="fill:#ff921e;fill-opacity:1;fill-rule:nonzero;stroke:none"
         d="m 0,0 -2.466,0 c -0.688,0 -1.276,-0.235 -1.766,-0.7 -0.492,-0.466 -0.737,-1.044 -0.737,-1.731 l 0,-9.9 c 0,-0.687 0.245,-1.264 0.737,-1.731 0.49,-0.465 1.078,-0.698 1.766,-0.698 L 0,-14.76 0,0 z m 2.945,2.208 0,-20.537 c 0,-1.375 -0.374,-2.466 -1.123,-3.276 -0.748,-0.81 -1.798,-1.214 -3.146,-1.214 l -4.344,0 0,2.208 3.791,0 c 0.564,0 1.011,0.189 1.344,0.57 0.33,0.381 0.495,0.865 0.495,1.454 l 0,1.618 -3.052,0 c -1.351,0 -2.491,0.443 -3.424,1.326 -0.933,0.883 -1.398,1.987 -1.398,3.312 l 0,9.9 c 0,1.327 0.472,2.431 1.417,3.313 0.943,0.882 2.091,1.326 3.44,1.326 l 6,0 z"
         transform="translate(-30.949204,10.2314)" />
      <path
         inkscape:connector-curvature="0"
         id="path424"
         style="fill:#ff921e;fill-opacity:1;fill-rule:nonzero;stroke:none"
         d="m 88.226,264.789 2.944,0 0,-25.764 -2.944,0 0,25.764 z"
         transform="translate(-112.1455,-245.7256)" />
      <path
         inkscape:connector-curvature="0"
         id="path428"
         style="fill:#ff921e;fill-opacity:1;fill-rule:nonzero;stroke:none"
         d="M 0,0 -2.099,0 -2.65,1.253 C -3.021,1.154 -3.511,0.986 -4.123,0.755 -4.736,0.521 -5.252,0.342 -5.669,0.221 -6.086,0.098 -6.404,0.013 -6.626,-0.037 -7.337,-0.183 -7.89,-0.258 -8.281,-0.258 c -0.884,0 -1.54,0.307 -1.97,0.92 -0.429,0.614 -0.645,1.411 -0.645,2.394 l 0,16.084 2.946,0 0,-15.126 c 0,-0.862 0.073,-1.394 0.221,-1.601 0.145,-0.212 0.33,-0.314 0.552,-0.314 0.221,0 1.632,0.368 4.232,1.104 l 0,15.937 L 0,19.14 0,0 z"
         transform="translate(-6.0693,-6.7002)" />
      <path
         inkscape:connector-curvature="0"
         id="path432"
         style="fill:#ff921e;fill-opacity:1;fill-rule:nonzero;stroke:none"
         d="m 0,0 0,-2.062 c 0,-0.663 0.247,-1.227 0.738,-1.694 0.491,-0.466 1.079,-0.698 1.767,-0.698 l 2.467,0 0,8.648 L 1.732,2.98 C 1.094,2.732 0.645,2.403 0.389,1.986 0.131,1.568 0,0.906 0,0 m -1.102,12.439 4.416,0 c 1.35,0 2.423,-0.4 3.22,-1.197 C 7.333,10.444 7.73,9.358 7.73,7.985 l 0,-14.685 -5.482,0 c -1.35,0 -2.497,0.478 -3.442,1.437 -0.945,0.955 -1.416,2.157 -1.416,3.605 l 0,1.915 c 0,1.152 0.289,2.122 0.863,2.907 0.577,0.783 1.295,1.337 2.154,1.655 l 4.565,1.695 0,1.728 c 0,0.59 -0.179,1.072 -0.535,1.454 -0.356,0.381 -0.816,0.571 -1.38,0.571 l -4.159,0 0,2.172 z" />
    </g>
  </g>
</svg>
