<?xml version="1.0" encoding="UTF-8" standalone="no"?>
<!-- Created with Inkscape (http://www.inkscape.org/) -->

<svg
   xmlns:dc="http://purl.org/dc/elements/1.1/"
   xmlns:cc="http://creativecommons.org/ns#"
   xmlns:rdf="http://www.w3.org/1999/02/22-rdf-syntax-ns#"
   xmlns:svg="http://www.w3.org/2000/svg"
   xmlns="http://www.w3.org/2000/svg"
   xmlns:sodipodi="http://sodipodi.sourceforge.net/DTD/sodipodi-0.dtd"
   xmlns:inkscape="http://www.inkscape.org/namespaces/inkscape"
   width="160"
   height="80"
   id="svg4046"
   version="1.1"
   inkscape:version="0.48.4 r9939"
   sodipodi:docname="glua_medium_orange_for_white_bg.svg">
  <defs
     id="defs4048" />
  <sodipodi:namedview
     id="base"
     pagecolor="#ffffff"
     bordercolor="#666666"
     borderopacity="1.0"
     inkscape:pageopacity="0.0"
     inkscape:pageshadow="2"
     inkscape:zoom="5.59375"
     inkscape:cx="80"
     inkscape:cy="40"
     inkscape:document-units="px"
     inkscape:current-layer="layer1"
     showgrid="false"
     inkscape:window-width="1280"
     inkscape:window-height="743"
     inkscape:window-x="0"
     inkscape:window-y="31"
     inkscape:window-maximized="1" />
  <metadata
     id="metadata4051">
    <rdf:RDF>
      <cc:Work
         rdf:about="">
        <dc:format>image/svg+xml</dc:format>
        <dc:type
           rdf:resource="http://purl.org/dc/dcmitype/StillImage" />
        <dc:title></dc:title>
      </cc:Work>
    </rdf:RDF>
  </metadata>
  <g
     inkscape:label="Layer 1"
     inkscape:groupmode="layer"
     id="layer1"
     transform="translate(0,-972.36218)">
    <g
       transform="matrix(1.25,0,0,-1.25,91.628915,1019.9012)"
       id="g4668">
      <path
         inkscape:connector-curvature="0"
         id="path338"
         style="fill:#000000;fill-opacity:1;fill-rule:nonzero;stroke:none"
         d="m 0,0 c 0,5.24 -1.803,9.374 -1.803,9.374 0,0 -0.261,1.357 -0.326,1.919 -0.096,0.79 -0.559,1.717 -0.559,1.717 l -1.166,2.77 c 0,0 -0.098,0.068 0.096,0.181 2.414,1.392 4.718,0.078 4.975,1.639 0.179,1.055 -3.228,3.021 -3.522,3.364 -0.978,1.141 -1.587,1.167 -1.587,1.167 0,0 0.21,0.668 0.14,1.679 -0.09,1.31 -0.642,1.846 -0.642,1.817 0,-0.099 0.307,0.107 0.266,0.201 -0.125,0.28 -0.287,0.235 -0.345,0.45 -0.389,1.455 -1.06,3.056 -2.215,4.356 -0.563,0.63 -3.06,2.392 -7.285,1.525 -4.284,-0.879 -5.486,-5.484 -5.555,-6.212 -0.317,-3.384 0.238,-3.853 -0.285,-5.469 -0.496,-1.523 -1.101,-4.591 -3.58,-7.312 -6.739,-7.398 -3.344,-23.618 -3.344,-23.618 0,0 -1.444,-2.699 -0.269,-2.726 0.996,-0.02 1.345,0.094 1.662,0.065 9.4,-0.861 9.185,-1.103 12.397,-0.866 2.292,0.167 4.697,0.617 6.672,1.509 2.462,1.111 3.685,2.091 4.607,4.209 C 0.476,-3.338 0,-1.589 0,0"
         transform="translate(48.086896,2.0947)" />
      <path
         inkscape:connector-curvature="0"
         id="path342"
         style="fill:#000000;fill-opacity:1;fill-rule:nonzero;stroke:none"
         d="m 0,0 c -0.458,-0.641 -10.781,4.134 -14.443,3.188 -2.043,-0.524 -11.081,-6.426 -6.777,-9.724 0.225,-0.172 2.447,-0.831 9.614,-1.077 2.655,-0.093 2.904,0.07 7.952,0.86 1.003,0.159 6.513,6.357 7.069,9.849 L 0,0 z"
         transform="translate(44.512696,-4.3389)" />
      <path
         inkscape:connector-curvature="0"
         id="path346"
         style="fill:#000000;fill-opacity:1;fill-rule:nonzero;stroke:none"
         d="m 0,0 c 0.598,-0.752 -0.65,-0.785 -0.506,-1.232 0.229,-0.719 1.61,-0.845 1.263,-1.622 -0.681,-1.525 -2.675,-0.143 -3.106,-0.89 -0.283,-0.49 -0.036,-1.722 -0.755,-2.149 -0.088,-0.052 -1.068,-0.906 -4.54,2.857 -0.822,0.894 -5.085,2.323 -3.934,4.458 0.322,0.598 1.034,0.873 1.887,0.782 C -7.798,2.003 -7.188,1.55 -4.905,0.852 -4.105,0.607 -0.798,1 0,0"
         transform="translate(48.6562,-9.1973)" />
      <path
         inkscape:connector-curvature="0"
         id="path350"
         style="fill:#000000;fill-opacity:1;fill-rule:nonzero;stroke:none"
         d="m 0,0 c 0.675,-0.342 -0.209,-0.772 0.04,-1.048 0.399,-0.439 1.43,-0.076 1.436,-0.746 0.01,-1.312 -1.869,-0.976 -1.933,-1.653 -0.04,-0.444 0.539,-1.243 0.164,-1.784 -0.046,-0.067 -0.467,-0.997 -4.182,0.56 -0.881,0.368 -4.4,-0.003 -4.275,1.901 0.035,0.532 0.455,0.962 1.094,1.177 1.42,0.476 2.006,0.351 3.868,0.6 C -3.136,-0.908 -0.897,0.457 0,0"
         transform="translate(49.164096,-1.8291)" />
      <path
         inkscape:connector-curvature="0"
         id="path354"
         style="fill:#000000;fill-opacity:1;fill-rule:nonzero;stroke:none"
         d="m 0,0 -4.394,0 c -1.222,0 -2.272,-0.417 -3.147,-1.246 -0.875,-0.83 -1.311,-1.858 -1.311,-3.083 l 0,-17.638 c 0,-1.226 0.436,-2.252 1.311,-3.084 0.875,-0.83 1.925,-1.245 3.147,-1.245 L 0,-26.296 0,0 z m 5.248,3.935 0,-36.591 c 0,-2.448 -0.668,-4.395 -2.002,-5.838 -1.334,-1.442 -3.201,-2.163 -5.605,-2.163 l -7.739,0 0,3.933 6.753,0 c 1.008,0 1.805,0.34 2.394,1.018 0.592,0.678 0.886,1.541 0.886,2.591 l 0,2.885 -5.442,0 c -2.405,0 -4.438,0.787 -6.098,2.361 -1.664,1.573 -2.493,3.541 -2.493,5.902 l 0,17.638 c 0,2.362 0.842,4.329 2.524,5.903 1.683,1.573 3.726,2.361 6.132,2.361 l 10.69,0 z"
         transform="translate(-55.1484,18.2305)" />
      <path
         inkscape:connector-curvature="0"
         id="path356"
         style="fill:#000000;fill-opacity:1;fill-rule:nonzero;stroke:none"
         d="m 338.702,362.183 5.246,0 0,-45.905 -5.246,0 0,45.905 z"
         transform="translate(-381.3252,-328.2129)" />
      <path
         inkscape:connector-curvature="0"
         id="path360"
         style="fill:#000000;fill-opacity:1;fill-rule:nonzero;stroke:none"
         d="M 0,0 -3.738,0 -4.722,2.23 C -5.379,2.057 -6.253,1.76 -7.346,1.346 -8.438,0.93 -9.356,0.612 -10.1,0.394 c -0.744,-0.218 -1.311,-0.371 -1.704,-0.458 -1.267,-0.263 -2.252,-0.394 -2.951,-0.394 -1.575,0 -2.744,0.546 -3.508,1.64 -0.766,1.091 -1.149,2.512 -1.149,4.262 l 0,28.657 5.248,0 0,-26.953 c 0,-1.531 0.129,-2.481 0.393,-2.851 0.263,-0.373 0.589,-0.559 0.983,-0.559 0.392,0 2.907,0.657 7.542,1.969 l 0,28.394 5.246,0 L 0,0 z"
         transform="translate(-10.8184,-11.935596)" />
      <path
         inkscape:connector-curvature="0"
         id="path364"
         style="fill:#000000;fill-opacity:1;fill-rule:nonzero;stroke:none"
         d="M 0,0 0,-3.671 C 0,-4.853 0.437,-5.858 1.313,-6.689 2.188,-7.52 3.235,-7.935 4.46,-7.935 l 4.394,0 0,15.411 L 3.083,5.311 C 1.944,4.873 1.147,4.283 0.689,3.542 0.23,2.798 0,1.618 0,0 m -1.966,22.165 7.868,0 c 2.404,0 4.318,-0.71 5.737,-2.13 1.422,-1.423 2.133,-3.356 2.133,-5.805 l 0,-26.166 -9.771,0 c -2.404,0 -4.449,0.853 -6.133,2.56 -1.682,1.703 -2.522,3.846 -2.522,6.426 l 0,3.41 c 0,2.054 0.512,3.779 1.539,5.18 1.027,1.398 2.306,2.382 3.837,2.95 l 8.132,3.017 0,3.083 c 0,1.049 -0.32,1.911 -0.952,2.59 -0.633,0.677 -1.454,1.016 -2.458,1.016 l -7.41,0 0,3.869 z" />
    </g>
  </g>
</svg>
