<?xml version="1.0" encoding="UTF-8" standalone="no"?>
<!-- Created with Inkscape (http://www.inkscape.org/) -->

<svg
   xmlns:dc="http://purl.org/dc/elements/1.1/"
   xmlns:cc="http://creativecommons.org/ns#"
   xmlns:rdf="http://www.w3.org/1999/02/22-rdf-syntax-ns#"
   xmlns:svg="http://www.w3.org/2000/svg"
   xmlns="http://www.w3.org/2000/svg"
   xmlns:sodipodi="http://sodipodi.sourceforge.net/DTD/sodipodi-0.dtd"
   xmlns:inkscape="http://www.inkscape.org/namespaces/inkscape"
   width="25"
   height="18"
   id="svg4046"
   version="1.1"
   inkscape:version="0.48.4 r9939"
   sodipodi:docname="glua_smallest_orange.svg">
  <defs
     id="defs4048" />
  <sodipodi:namedview
     id="base"
     pagecolor="#ffffff"
     bordercolor="#666666"
     borderopacity="1.0"
     inkscape:pageopacity="0.0"
     inkscape:pageshadow="2"
     inkscape:zoom="29.777778"
     inkscape:cx="12.5"
     inkscape:cy="9"
     inkscape:document-units="px"
     inkscape:current-layer="layer1"
     showgrid="false"
     inkscape:window-width="1280"
     inkscape:window-height="743"
     inkscape:window-x="0"
     inkscape:window-y="31"
     inkscape:window-maximized="1" />
  <metadata
     id="metadata4051">
    <rdf:RDF>
      <cc:Work
         rdf:about="">
        <dc:format>image/svg+xml</dc:format>
        <dc:type
           rdf:resource="http://purl.org/dc/dcmitype/StillImage" />
        <dc:title></dc:title>
      </cc:Work>
    </rdf:RDF>
  </metadata>
  <g
     inkscape:label="Layer 1"
     inkscape:groupmode="layer"
     id="layer1"
     transform="translate(0,-1034.3622)">
    <g
       transform="matrix(1.25,0,0,-1.25,19.191,1044.7555)"
       id="g5162">
      <path
         inkscape:connector-curvature="0"
         id="path478"
         style="fill:#ffffff;fill-opacity:1;fill-rule:nonzero;stroke:none"
         d="M 0,0 -0.848,0 C -1.084,0 -1.286,-0.081 -1.456,-0.24 -1.625,-0.401 -1.708,-0.6 -1.708,-0.836 l 0,-3.404 c 0,-0.237 0.083,-0.435 0.252,-0.597 0.17,-0.16 0.372,-0.239 0.608,-0.239 L 0,-5.076 0,0 z m 1.013,0.759 0,-7.063 C 1.013,-6.776 0.885,-7.152 0.626,-7.431 0.37,-7.708 0.009,-7.848 -0.455,-7.848 l -1.494,0 0,0.758 1.303,0 c 0.194,0 0.348,0.068 0.462,0.197 0.114,0.131 0.172,0.298 0.172,0.501 l 0,0.556 -1.051,0 c -0.465,0 -0.856,0.151 -1.176,0.457 -0.323,0.303 -0.482,0.682 -0.482,1.139 l 0,3.404 c 0,0.456 0.161,0.836 0.487,1.138 0.325,0.305 0.72,0.457 1.183,0.457 l 2.064,0 z"
         transform="translate(-10.6436,3.519504)" />
      <path
         inkscape:connector-curvature="0"
         id="path480"
         style="fill:#ffffff;fill-opacity:1;fill-rule:nonzero;stroke:none"
         d="m 443.483,246.216 1.012,0 0,-8.861 -1.012,0 0,8.861 z"
         transform="translate(-451.709,-239.6582)" />
      <path
         inkscape:connector-curvature="0"
         id="path484"
         style="fill:#ffffff;fill-opacity:1;fill-rule:nonzero;stroke:none"
         d="M 0,0 -0.722,0 -0.911,0.432 C -1.039,0.397 -1.207,0.34 -1.418,0.261 -1.629,0.179 -1.807,0.118 -1.949,0.076 -2.093,0.033 -2.202,0.005 -2.279,-0.013 c -0.243,-0.05 -0.434,-0.075 -0.569,-0.075 -0.304,0 -0.53,0.106 -0.677,0.316 -0.148,0.211 -0.222,0.485 -0.222,0.824 l 0,5.53 1.013,0 0,-5.201 c 0,-0.296 0.025,-0.48 0.077,-0.551 0.049,-0.072 0.112,-0.107 0.189,-0.107 0.076,0 0.561,0.126 1.455,0.379 l 0,5.48 L 0,6.582 0,0 z"
         transform="translate(-2.086904,-2.303696)" />
      <path
         inkscape:connector-curvature="0"
         id="path488"
         style="fill:#ffffff;fill-opacity:1;fill-rule:nonzero;stroke:none"
         d="m 0,0 0,-0.709 c 0,-0.227 0.085,-0.422 0.255,-0.582 0.168,-0.16 0.371,-0.241 0.607,-0.241 l 0.849,0 0,2.974 L 0.597,1.026 C 0.376,0.941 0.224,0.827 0.135,0.684 0.046,0.54 0,0.313 0,0 m -0.379,4.278 1.52,0 c 0.463,0 0.832,-0.136 1.106,-0.411 0.274,-0.275 0.412,-0.648 0.412,-1.12 l 0,-5.051 -1.886,0 c -0.463,0 -0.859,0.165 -1.184,0.494 -0.323,0.33 -0.486,0.743 -0.486,1.241 l 0,0.657 c 0,0.397 0.099,0.731 0.296,1.001 0.199,0.269 0.446,0.46 0.741,0.569 l 1.571,0.582 0,0.596 c 0,0.202 -0.062,0.368 -0.185,0.5 -0.123,0.131 -0.28,0.195 -0.474,0.195 l -1.431,0 0,0.747 z" />
    </g>
  </g>
</svg>
