<?xml version="1.0" encoding="UTF-8" standalone="no"?>
<!-- Created with Inkscape (http://www.inkscape.org/) -->

<svg
   xmlns:dc="http://purl.org/dc/elements/1.1/"
   xmlns:cc="http://creativecommons.org/ns#"
   xmlns:rdf="http://www.w3.org/1999/02/22-rdf-syntax-ns#"
   xmlns:svg="http://www.w3.org/2000/svg"
   xmlns="http://www.w3.org/2000/svg"
   xmlns:sodipodi="http://sodipodi.sourceforge.net/DTD/sodipodi-0.dtd"
   xmlns:inkscape="http://www.inkscape.org/namespaces/inkscape"
   width="45"
   height="32"
   id="svg4046"
   version="1.1"
   inkscape:version="0.48.4 r9939"
   sodipodi:docname="glua_smaller_white.svg">
  <defs
     id="defs4048" />
  <sodipodi:namedview
     id="base"
     pagecolor="#ffffff"
     bordercolor="#666666"
     borderopacity="1.0"
     inkscape:pageopacity="0.0"
     inkscape:pageshadow="2"
     inkscape:zoom="16.75"
     inkscape:cx="22.5"
     inkscape:cy="16"
     inkscape:document-units="px"
     inkscape:current-layer="layer1"
     showgrid="false"
     inkscape:window-width="1280"
     inkscape:window-height="743"
     inkscape:window-x="0"
     inkscape:window-y="31"
     inkscape:window-maximized="1" />
  <metadata
     id="metadata4051">
    <rdf:RDF>
      <cc:Work
         rdf:about="">
        <dc:format>image/svg+xml</dc:format>
        <dc:type
           rdf:resource="http://purl.org/dc/dcmitype/StillImage" />
        <dc:title></dc:title>
      </cc:Work>
    </rdf:RDF>
  </metadata>
  <g
     inkscape:label="Layer 1"
     inkscape:groupmode="layer"
     id="layer1"
     transform="translate(0,-1020.3622)">
    <g
       transform="matrix(1.25,0,0,-1.25,35.692753,1039.1075)"
       id="g5046">
      <path
         inkscape:connector-curvature="0"
         id="path732"
         style="fill:#000000;fill-opacity:1;fill-rule:nonzero;stroke:none"
         d="M 0,0 -1.673,0 C -2.139,0 -2.536,-0.159 -2.87,-0.474 -3.203,-0.791 -3.368,-1.182 -3.368,-1.647 l 0,-6.712 c 0,-0.466 0.165,-0.858 0.498,-1.174 0.334,-0.315 0.731,-0.474 1.197,-0.474 L 0,-10.007 0,0 z m 1.996,1.498 0,-13.924 c 0,-0.932 -0.254,-1.672 -0.761,-2.221 -0.506,-0.55 -1.218,-0.823 -2.132,-0.823 l -2.945,0 0,1.495 2.571,0 c 0.381,0 0.684,0.13 0.909,0.388 0.225,0.257 0.337,0.587 0.337,0.985 l 0,1.099 -2.07,0 c -0.917,0 -1.688,0.299 -2.321,0.899 -0.633,0.597 -0.948,1.346 -0.948,2.245 l 0,6.712 c 0,0.899 0.32,1.647 0.96,2.246 0.64,0.597 1.418,0.899 2.334,0.899 l 4.066,0 z"
         transform="translate(-20.984404,6.9365)" />
      <path
         inkscape:connector-curvature="0"
         id="path734"
         style="fill:#000000;fill-opacity:1;fill-rule:nonzero;stroke:none"
         d="m 396.92,185.463 1.995,0 0,-17.468 -1.995,0 0,17.468 z"
         transform="translate(-413.1377,-172.5371)" />
      <path
         inkscape:connector-curvature="0"
         id="path738"
         style="fill:#000000;fill-opacity:1;fill-rule:nonzero;stroke:none"
         d="M 0,0 -1.422,0 -1.797,0.849 C -2.048,0.783 -2.38,0.669 -2.796,0.512 -3.21,0.354 -3.56,0.232 -3.843,0.149 -4.126,0.065 -4.342,0.008 -4.492,-0.024 c -0.482,-0.101 -0.857,-0.151 -1.122,-0.151 -0.6,0 -1.043,0.208 -1.334,0.623 -0.291,0.416 -0.438,0.957 -0.438,1.624 l 0,10.905 1.996,0 0,-10.256 c 0,-0.584 0.049,-0.945 0.151,-1.085 0.098,-0.143 0.223,-0.213 0.373,-0.213 0.149,0 1.107,0.248 2.869,0.748 l 0,10.806 1.997,0 L 0,0 z"
         transform="translate(-4.116196,-4.541996)" />
      <path
         inkscape:connector-curvature="0"
         id="path742"
         style="fill:#000000;fill-opacity:1;fill-rule:nonzero;stroke:none"
         d="m 0,0 0,-1.397 c 0,-0.451 0.166,-0.833 0.5,-1.15 0.332,-0.314 0.73,-0.474 1.197,-0.474 l 1.673,0 0,5.864 L 1.174,2.021 C 0.74,1.853 0.437,1.63 0.264,1.348 0.088,1.063 0,0.615 0,0 m -0.748,8.435 2.995,0 C 3.16,8.435 3.889,8.163 4.43,7.622 4.97,7.081 5.24,6.345 5.24,5.414 l 0,-9.956 -3.718,0 c -0.914,0 -1.693,0.325 -2.333,0.974 -0.64,0.647 -0.96,1.463 -0.96,2.444 l 0,1.298 c 0,0.781 0.196,1.438 0.586,1.972 0.391,0.531 0.877,0.906 1.459,1.123 l 3.096,1.147 0,1.173 c 0,0.4 -0.122,0.726 -0.364,0.985 C 2.767,6.833 2.453,6.961 2.071,6.961 l -2.819,0 0,1.474 z" />
    </g>
  </g>
</svg>
