<?xml version="1.0" encoding="UTF-8" standalone="no"?>
<!-- Created with Inkscape (http://www.inkscape.org/) -->

<svg
   xmlns:dc="http://purl.org/dc/elements/1.1/"
   xmlns:cc="http://creativecommons.org/ns#"
   xmlns:rdf="http://www.w3.org/1999/02/22-rdf-syntax-ns#"
   xmlns:svg="http://www.w3.org/2000/svg"
   xmlns="http://www.w3.org/2000/svg"
   xmlns:sodipodi="http://sodipodi.sourceforge.net/DTD/sodipodi-0.dtd"
   xmlns:inkscape="http://www.inkscape.org/namespaces/inkscape"
   width="65"
   height="45"
   id="svg4046"
   version="1.1"
   inkscape:version="0.48.4 r9939"
   sodipodi:docname="glua_small_white.svg">
  <defs
     id="defs4048" />
  <sodipodi:namedview
     id="base"
     pagecolor="#ffffff"
     bordercolor="#666666"
     borderopacity="1.0"
     inkscape:pageopacity="0.0"
     inkscape:pageshadow="2"
     inkscape:zoom="11.911111"
     inkscape:cx="32.5"
     inkscape:cy="22.5"
     inkscape:document-units="px"
     inkscape:current-layer="layer1"
     showgrid="false"
     inkscape:window-width="1280"
     inkscape:window-height="743"
     inkscape:window-x="0"
     inkscape:window-y="31"
     inkscape:window-maximized="1" />
  <metadata
     id="metadata4051">
    <rdf:RDF>
      <cc:Work
         rdf:about="">
        <dc:format>image/svg+xml</dc:format>
        <dc:type
           rdf:resource="http://purl.org/dc/dcmitype/StillImage" />
        <dc:title></dc:title>
      </cc:Work>
    </rdf:RDF>
  </metadata>
  <g
     inkscape:label="Layer 1"
     inkscape:groupmode="layer"
     id="layer1"
     transform="translate(0,-1007.3622)">
    <g
       transform="matrix(1.25,0,0,-1.25,51.95819,1033.9115)"
       id="g4872">
      <path
         inkscape:connector-curvature="0"
         id="path704"
         style="fill:#000000;fill-opacity:1;fill-rule:nonzero;stroke:none"
         d="m 0,0 -2.466,0 c -0.687,0 -1.276,-0.234 -1.766,-0.699 -0.493,-0.468 -0.737,-1.044 -0.737,-1.732 l 0,-9.898 c 0,-0.688 0.244,-1.264 0.737,-1.732 0.49,-0.465 1.079,-0.698 1.766,-0.698 L 0,-14.759 0,0 z m 2.945,2.208 0,-20.535 c 0,-1.376 -0.375,-2.468 -1.123,-3.277 -0.749,-0.81 -1.796,-1.214 -3.146,-1.214 l -4.344,0 0,2.207 3.791,0 c 0.564,0 1.011,0.19 1.343,0.57 0.331,0.381 0.496,0.866 0.496,1.455 l 0,1.619 -3.052,0 c -1.352,0 -2.491,0.442 -3.424,1.325 -0.933,0.883 -1.399,1.986 -1.399,3.313 l 0,9.898 c 0,1.327 0.473,2.431 1.418,3.314 0.943,0.883 2.092,1.325 3.44,1.325 l 6,0 z"
         transform="translate(-30.950104,10.232404)" />
      <path
         inkscape:connector-curvature="0"
         id="path706"
         style="fill:#000000;fill-opacity:1;fill-rule:nonzero;stroke:none"
         d="m 333.094,194.962 2.944,0 0,-25.764 -2.944,0 0,25.764 z"
         transform="translate(-357.0146,-175.8975)" />
      <path
         inkscape:connector-curvature="0"
         id="path710"
         style="fill:#000000;fill-opacity:1;fill-rule:nonzero;stroke:none"
         d="M 0,0 -2.098,0 -2.649,1.253 C -3.019,1.155 -3.51,0.988 -4.123,0.756 -4.735,0.523 -5.25,0.344 -5.668,0.221 -6.085,0.099 -6.403,0.014 -6.626,-0.035 c -0.709,-0.148 -1.262,-0.222 -1.655,-0.222 -0.882,0 -1.54,0.308 -1.969,0.92 -0.43,0.614 -0.645,1.411 -0.645,2.394 l 0,16.083 2.945,0 0,-15.126 c 0,-0.86 0.073,-1.394 0.221,-1.602 0.146,-0.209 0.332,-0.313 0.552,-0.313 0.221,0 1.633,0.368 4.233,1.105 l 0,15.936 L 0,19.14 0,0 z"
         transform="translate(-6.0712,-6.6993)" />
      <path
         inkscape:connector-curvature="0"
         id="path714"
         style="fill:#000000;fill-opacity:1;fill-rule:nonzero;stroke:none"
         d="m 0,0 0,-2.06 c 0,-0.664 0.246,-1.228 0.738,-1.694 0.49,-0.467 1.078,-0.699 1.766,-0.699 l 2.467,0 0,8.648 -3.24,-1.214 C 1.092,2.735 0.645,2.405 0.388,1.987 0.131,1.57 0,0.909 0,0 m -1.103,12.44 4.416,0 c 1.349,0 2.423,-0.398 3.219,-1.196 C 7.331,10.445 7.73,9.359 7.73,7.987 l 0,-14.686 -5.484,0 c -1.349,0 -2.496,0.479 -3.441,1.436 -0.945,0.957 -1.417,2.158 -1.417,3.606 l 0,1.914 c 0,1.155 0.29,2.123 0.864,2.908 0.577,0.785 1.294,1.338 2.154,1.656 l 4.565,1.694 0,1.729 c 0,0.59 -0.18,1.071 -0.535,1.453 -0.357,0.382 -0.816,0.572 -1.38,0.572 l -4.159,0 0,2.171 z" />
    </g>
  </g>
</svg>
