<?xml version="1.0" encoding="UTF-8" standalone="no"?>
<!-- Created with Inkscape (http://www.inkscape.org/) -->

<svg
   xmlns:dc="http://purl.org/dc/elements/1.1/"
   xmlns:cc="http://creativecommons.org/ns#"
   xmlns:rdf="http://www.w3.org/1999/02/22-rdf-syntax-ns#"
   xmlns:svg="http://www.w3.org/2000/svg"
   xmlns="http://www.w3.org/2000/svg"
   xmlns:sodipodi="http://sodipodi.sourceforge.net/DTD/sodipodi-0.dtd"
   xmlns:inkscape="http://www.inkscape.org/namespaces/inkscape"
   width="185"
   height="290"
   id="svg4046"
   version="1.1"
   inkscape:version="0.48.4 r9939"
   sodipodi:docname="New document 4">
  <defs
     id="defs4048" />
  <sodipodi:namedview
     id="base"
     pagecolor="#ffffff"
     bordercolor="#666666"
     borderopacity="1.0"
     inkscape:pageopacity="0.0"
     inkscape:pageshadow="2"
     inkscape:zoom="1.8482759"
     inkscape:cx="92.5"
     inkscape:cy="145"
     inkscape:document-units="px"
     inkscape:current-layer="layer1"
     showgrid="false"
     inkscape:window-width="1280"
     inkscape:window-height="743"
     inkscape:window-x="0"
     inkscape:window-y="31"
     inkscape:window-maximized="1" />
  <metadata
     id="metadata4051">
    <rdf:RDF>
      <cc:Work
         rdf:about="">
        <dc:format>image/svg+xml</dc:format>
        <dc:type
           rdf:resource="http://purl.org/dc/dcmitype/StillImage" />
        <dc:title></dc:title>
      </cc:Work>
    </rdf:RDF>
  </metadata>
  <g
     inkscape:label="Layer 1"
     inkscape:groupmode="layer"
     id="layer1"
     transform="translate(0,-762.36218)">
    <g
       transform="matrix(1.25,0,0,-1.25,84.769314,995.99673)"
       id="g3920">
      <path
         inkscape:connector-curvature="0"
         id="path210"
         style="fill:#ff921e;fill-opacity:1;fill-rule:nonzero;stroke:none"
         d="m 0,0 c 0,22.851 -7.853,40.877 -7.853,40.877 0,0 -1.149,5.911 -1.438,8.363 -0.403,3.439 -2.426,7.488 -2.426,7.488 l -5.091,12.078 c 0,0 -0.424,0.294 0.428,0.785 10.521,6.071 20.557,0.34 21.695,7.145 0.776,4.607 -14.08,13.168 -15.365,14.666 -4.267,4.979 -6.917,5.089 -6.917,5.089 0,0 0.909,2.913 0.609,7.323 -0.387,5.717 -2.799,8.055 -2.799,7.918 0,-0.426 1.335,0.479 1.153,0.882 -0.542,1.22 -1.25,1.03 -1.5,1.957 -1.698,6.354 -4.624,13.333 -9.655,18.997 -2.449,2.752 -13.341,10.438 -31.761,6.656 -18.686,-3.833 -23.927,-23.916 -24.224,-27.088 -1.386,-14.751 1.04,-16.797 -1.25,-23.846 -2.158,-6.64 -4.793,-20.022 -15.607,-31.892 -29.389,-32.254 -14.582,-102.979 -14.582,-102.979 0,0 -6.294,-11.765 -1.173,-11.876 4.346,-0.096 5.859,0.403 7.253,0.276 40.982,-3.753 40.049,-4.805 54.046,-3.776 10,0.731 20.487,2.692 29.095,6.579 10.736,4.85 16.068,9.127 20.089,18.357 C 2.077,-14.546 0,-6.927 0,0"
         transform="translate(60.7753,38.008804)" />
      <path
         inkscape:connector-curvature="0"
         id="path214"
         style="fill:#ff921e;fill-opacity:1;fill-rule:nonzero;stroke:none"
         d="m 0,0 c -1.996,-2.796 -47.01,18.023 -62.978,13.908 -8.9,-2.291 -48.313,-28.034 -29.549,-42.404 0.981,-0.752 10.672,-3.63 41.925,-4.706 11.577,-0.398 12.658,0.31 34.669,3.763 4.377,0.685 28.402,27.708 30.826,42.948 L 0,0 z"
         transform="translate(45.188404,9.9541)" />
      <path
         inkscape:connector-curvature="0"
         id="path218"
         style="fill:#ff921e;fill-opacity:1;fill-rule:nonzero;stroke:none"
         d="m 0,0 c 2.611,-3.278 -2.832,-3.419 -2.212,-5.374 0.995,-3.126 7.025,-3.681 5.512,-7.071 -2.967,-6.647 -11.664,-0.614 -13.544,-3.88 -1.235,-2.144 -0.159,-7.501 -3.291,-9.366 -0.381,-0.229 -4.657,-3.948 -19.787,12.461 -3.593,3.892 -22.181,10.126 -17.163,19.434 1.405,2.604 4.512,3.807 8.229,3.411 8.251,-0.879 10.912,-2.848 20.871,-5.897 C -17.902,2.649 -3.478,4.371 0,0"
         transform="translate(63.2607,-11.234396)" />
      <path
         inkscape:connector-curvature="0"
         id="path222"
         style="fill:#ff921e;fill-opacity:1;fill-rule:nonzero;stroke:none"
         d="m 0,0 c 2.94,-1.49 -0.906,-3.373 0.178,-4.569 1.734,-1.911 6.229,-0.334 6.257,-3.255 0.051,-5.728 -8.145,-4.256 -8.422,-7.207 -0.182,-1.938 2.342,-5.419 0.711,-7.779 -0.199,-0.289 -2.04,-4.349 -18.234,2.439 -3.844,1.609 -19.184,-0.012 -18.638,8.29 0.152,2.32 1.981,4.198 4.771,5.131 6.19,2.073 8.737,1.534 16.862,2.611 C -13.674,-3.962 -3.916,1.988 0,0"
         transform="translate(65.471596,20.899404)" />
      <path
         inkscape:connector-curvature="0"
         id="path226"
         style="fill:#ffffff;fill-opacity:1;fill-rule:nonzero;stroke:none"
         d="M 0,0 -1.419,0 C -1.815,0 -2.152,-0.134 -2.438,-0.402 -2.719,-0.672 -2.86,-1.003 -2.86,-1.399 l 0,-5.697 c 0,-0.395 0.141,-0.728 0.422,-0.997 0.286,-0.267 0.623,-0.402 1.019,-0.402 L 0,-8.495 0,0 z m 1.695,1.272 0,-11.82 c 0,-0.791 -0.216,-1.421 -0.646,-1.887 -0.43,-0.465 -1.035,-0.698 -1.813,-0.698 l -2.498,0 0,1.272 2.181,0 c 0.324,0 0.583,0.108 0.774,0.327 0.191,0.219 0.286,0.498 0.286,0.836 l 0,0.931 -1.758,0 c -0.778,0 -1.433,0.256 -1.969,0.765 -0.537,0.507 -0.807,1.143 -0.807,1.906 l 0,5.697 c 0,0.763 0.272,1.399 0.817,1.909 0.544,0.508 1.203,0.762 1.98,0.762 l 3.453,0 z"
         transform="translate(-41.983396,72.1533)" />
      <path
         inkscape:connector-curvature="0"
         id="path230"
         style="fill:#ffffff;fill-opacity:1;fill-rule:nonzero;stroke:none"
         d="m 0,0 0,-1.25 c -0.367,0 -1.164,-0.297 -2.395,-0.89 l 0,-9.024 -1.694,0 0,11.017 1.314,0 0.191,-0.787 c 0.861,0.425 1.453,0.687 1.779,0.787 C -0.48,-0.051 -0.213,0 0,0"
         transform="translate(-33.870196,73.573204)" />
      <path
         inkscape:connector-curvature="0"
         id="path234"
         style="fill:#ffffff;fill-opacity:1;fill-rule:nonzero;stroke:none"
         d="M 0,0 -1.207,0 -1.525,0.72 C -1.736,0.663 -2.02,0.569 -2.373,0.435 -2.726,0.301 -3.023,0.197 -3.263,0.126 c -0.24,-0.07 -0.423,-0.119 -0.55,-0.148 -0.41,-0.082 -0.727,-0.126 -0.953,-0.126 -0.508,0 -0.886,0.176 -1.132,0.53 -0.248,0.352 -0.372,0.811 -0.372,1.376 l 0,9.259 1.695,0 0,-8.707 c 0,-0.496 0.043,-0.803 0.127,-0.922 0.085,-0.12 0.19,-0.181 0.318,-0.181 0.128,0 0.938,0.212 2.437,0.636 l 0,9.174 1.693,0 L 0,0 z"
         transform="translate(-26.2237,62.409204)" />
      <path
         inkscape:connector-curvature="0"
         id="path238"
         style="fill:#ffffff;fill-opacity:1;fill-rule:nonzero;stroke:none"
         d="m 0,0 -1.397,0 0,-8.495 1.397,0 c 0.397,0 0.734,0.135 1.018,0.402 0.281,0.269 0.423,0.602 0.423,0.997 l 0,5.697 c 0,0.396 -0.142,0.727 -0.423,0.997 C 0.734,-0.134 0.397,0 0,0 m -1.397,-13.133 -1.696,0 0,14.405 3.432,0 C 1.115,1.272 1.775,1.018 2.319,0.51 2.862,0 3.135,-0.636 3.135,-1.399 l 0,-5.697 C 3.135,-7.859 2.866,-8.49 2.331,-8.992 1.793,-9.494 1.137,-9.744 0.36,-9.744 l -1.757,0 0,-3.389 z"
         transform="translate(-20.5889,72.1533)" />
      <path
         inkscape:connector-curvature="0"
         id="path242"
         style="fill:#ffffff;fill-opacity:1;fill-rule:nonzero;stroke:none"
         d="m 0,0 c 0,-0.495 0.13,-0.872 0.392,-1.134 0.259,-0.262 0.618,-0.392 1.069,-0.392 0.452,0 0.809,0.13 1.069,0.392 0.262,0.262 0.392,0.639 0.392,1.134 l 0,5.633 C 2.922,6.127 2.792,6.506 2.53,6.768 2.27,7.028 1.913,7.16 1.461,7.16 1.01,7.16 0.651,7.028 0.392,6.768 0.13,6.506 0,6.127 0,5.633 L 0,0 z M 4.574,0 C 4.574,-0.891 4.303,-1.588 3.76,-2.087 3.216,-2.589 2.45,-2.84 1.461,-2.84 c -0.988,0 -1.756,0.251 -2.299,0.753 -0.543,0.499 -0.815,1.196 -0.815,2.087 l 0,5.633 c 0,0.889 0.272,1.586 0.815,2.088 0.543,0.502 1.311,0.752 2.299,0.752 0.989,0 1.755,-0.25 2.299,-0.752 C 4.303,7.219 4.574,6.522 4.574,5.633 L 4.574,0 z"
         transform="translate(-14.212004,65.100604)" />
      <path
         inkscape:connector-curvature="0"
         id="path246"
         style="fill:#ffffff;fill-opacity:1;fill-rule:nonzero;stroke:none"
         d="m 0,0 0,25.696 3.23,0 0,-23.274 7.527,0 L 10.757,0 0,0 z"
         transform="translate(-46.6241,29.258804)" />
      <path
         inkscape:connector-curvature="0"
         id="path248"
         style="fill:#ffffff;fill-opacity:1;fill-rule:nonzero;stroke:none"
         d="m 92.137,584.076 3.23,0 0,-25.696 -3.23,0 0,25.696 z"
         transform="translate(-124.8477,-529.1211)" />
      <path
         inkscape:connector-curvature="0"
         id="path252"
         style="fill:#ffffff;fill-opacity:1;fill-rule:nonzero;stroke:none"
         d="m 0,0 -4.624,0 -6.791,23.346 0,-23.346 -3.231,0 0,25.696 5.396,0 5.983,-22.208 0,22.208 3.267,0 L 0,0 z"
         transform="translate(-9.767604,29.258804)" />
      <path
         inkscape:connector-curvature="0"
         id="path256"
         style="fill:#ffffff;fill-opacity:1;fill-rule:nonzero;stroke:none"
         d="m 0,0 3.229,0 0,-19.971 c 0,-1.174 0.288,-2.061 0.862,-2.66 0.575,-0.599 1.379,-0.9 2.405,-0.9 1.027,0 1.837,0.301 2.423,0.9 0.588,0.599 0.881,1.486 0.881,2.66 L 9.8,0 l 3.23,0 0,-19.346 c 0,-4.405 -2.171,-6.606 -6.515,-6.606 C 2.17,-25.952 0,-23.751 0,-19.346 L 0,0 z"
         transform="translate(-5.801804,54.9551)" />
      <path
         inkscape:connector-curvature="0"
         id="path260"
         style="fill:#ffffff;fill-opacity:1;fill-rule:nonzero;stroke:none"
         d="m 0,0 -4.404,-10.278 -3.232,0 5.801,13.509 -5.066,12.187 3.231,0 3.67,-8.846 3.744,8.846 3.231,0 -5.323,-12.187 5.947,-13.509 -3.267,0 L 0,0 z"
         transform="translate(17.5439,39.5371)" />
      <path
         inkscape:connector-curvature="0"
         id="path264"
         style="fill:#ffffff;fill-opacity:1;fill-rule:nonzero;stroke:none"
         d="m 0,0 -1.063,0 -0.28,0.634 C -1.529,0.585 -1.776,0.502 -2.088,0.383 -2.399,0.265 -2.66,0.174 -2.87,0.111 -3.082,0.05 -3.243,0.006 -3.355,-0.02 c -0.361,-0.072 -0.64,-0.11 -0.839,-0.11 -0.447,0 -0.78,0.155 -0.997,0.466 -0.217,0.311 -0.328,0.715 -0.328,1.212 l 0,8.146 1.494,0 0,-7.662 c 0,-0.434 0.037,-0.705 0.111,-0.81 0.074,-0.106 0.169,-0.159 0.278,-0.159 0.115,0 0.828,0.188 2.145,0.56 l 0,8.071 L 0,9.694 0,0 z"
         transform="translate(-41.1739,13.226604)" />
      <path
         inkscape:connector-curvature="0"
         id="path268"
         style="fill:#ffffff;fill-opacity:1;fill-rule:nonzero;stroke:none"
         d="m 0,0 1.154,0 0.169,-0.543 c 0.173,0.05 0.449,0.131 0.829,0.243 0.379,0.112 0.649,0.187 0.811,0.224 0.484,0.137 0.924,0.206 1.313,0.206 0.392,0 0.695,-0.157 0.906,-0.467 0.211,-0.311 0.317,-0.715 0.317,-1.211 l 0,-8.146 -1.492,0 0,7.66 c 0,0.361 -0.025,0.612 -0.075,0.757 -0.049,0.141 -0.149,0.213 -0.298,0.213 -0.15,0 -0.864,-0.199 -2.145,-0.596 l 0,-8.034 L 0,-9.694 0,0 z"
         transform="translate(-38.936596,22.9209)" />
      <path
         inkscape:connector-curvature="0"
         id="path270"
         style="fill:#ffffff;fill-opacity:1;fill-rule:nonzero;stroke:none"
         d="m 93.478,552.042 1.492,0 0,-9.694 -1.492,0 0,9.694 z m 0,3.074 1.492,0 0,-1.491 -1.492,0 0,1.491 z"
         transform="translate(-124.8477,-529.1211)" />
      <path
         inkscape:connector-curvature="0"
         id="path274"
         style="fill:#ffffff;fill-opacity:1;fill-rule:nonzero;stroke:none"
         d="m 0,0 1.419,7.812 1.547,0 -2.219,-9.695 -1.51,0 -2.217,9.695 1.546,0 L 0,0 z"
         transform="translate(-25.499996,15.109404)" />
      <path
         inkscape:connector-curvature="0"
         id="path278"
         style="fill:#ffffff;fill-opacity:1;fill-rule:nonzero;stroke:none"
         d="m 0,0 0,-2.405 c 0.287,0.087 0.59,0.17 0.914,0.251 0.322,0.081 0.543,0.14 0.662,0.176 0.117,0.039 0.247,0.082 0.39,0.131 0.143,0.05 0.226,0.112 0.252,0.187 0.075,0.199 0.112,0.41 0.112,0.634 L 2.33,0 C 2.33,0.769 1.945,1.154 1.174,1.154 0.827,1.154 0.543,1.056 0.326,0.854 0.108,0.657 0,0.371 0,0 m 0.97,-6.432 2.012,0 0,-1.119 -2.236,0 c -0.683,0 -1.226,0.205 -1.632,0.616 -0.403,0.411 -0.605,0.963 -0.605,1.658 l 0,4.959 c 0,0.808 0.224,1.441 0.67,1.901 0.448,0.46 1.112,0.69 1.995,0.69 0.883,0 1.544,-0.23 1.985,-0.69 C 3.6,1.123 3.822,0.49 3.822,-0.318 l 0,-0.858 c 0,-0.895 -0.541,-1.491 -1.623,-1.79 L 0,-3.579 0,-5.406 C 0,-5.705 0.091,-5.95 0.271,-6.144 0.451,-6.336 0.684,-6.432 0.97,-6.432"
         transform="translate(-19.944404,20.7773)" />
      <path
         inkscape:connector-curvature="0"
         id="path282"
         style="fill:#ffffff;fill-opacity:1;fill-rule:nonzero;stroke:none"
         d="m 0,0 0,-1.1 c -0.323,0 -1.024,-0.261 -2.106,-0.785 l 0,-7.939 -1.491,0 0,9.694 1.155,0 0.169,-0.691 c 0.757,0.373 1.279,0.603 1.566,0.691 C -0.422,-0.044 -0.186,0 0,0"
         transform="translate(-11.035204,23.050804)" />
      <path
         inkscape:connector-curvature="0"
         id="path286"
         style="fill:#ffffff;fill-opacity:1;fill-rule:nonzero;stroke:none"
         d="m 0,0 c 0,0.57 -0.366,1.136 -1.1,1.694 -0.297,0.225 -0.602,0.461 -0.914,0.71 -0.733,0.609 -1.099,1.379 -1.099,2.311 0,0.659 0.22,1.203 0.662,1.63 0.44,0.429 1.034,0.645 1.779,0.645 l 1.623,0 0,-1.12 -1.343,0 c -0.882,0 -1.323,-0.416 -1.323,-1.248 0,-0.511 0.365,-1.032 1.1,-1.566 C -0.317,2.833 -0.02,2.593 0.279,2.34 0.579,2.083 0.832,1.749 1.044,1.331 1.255,0.915 1.361,0.446 1.361,-0.076 c 0,-0.883 -0.233,-1.541 -0.7,-1.975 -0.465,-0.435 -1.121,-0.653 -1.966,-0.653 l -1.808,0 0,1.119 1.585,0 C -0.509,-1.585 0,-1.057 0,0"
         transform="translate(-7.0831,15.9307)" />
      <path
         inkscape:connector-curvature="0"
         id="path288"
         style="fill:#ffffff;fill-opacity:1;fill-rule:nonzero;stroke:none"
         d="m 120.803,552.042 1.49,0 0,-9.694 -1.49,0 0,9.694 z m 0,3.074 1.49,0 0,-1.491 -1.49,0 0,1.491 z"
         transform="translate(-124.8477,-529.1211)" />
      <path
         inkscape:connector-curvature="0"
         id="path292"
         style="fill:#ffffff;fill-opacity:1;fill-rule:nonzero;stroke:none"
         d="M 0,0 0,7.828 -1.658,7.27 C -1.982,7.17 -2.208,7.01 -2.339,6.795 -2.468,6.576 -2.534,6.231 -2.534,5.76 l 0,-4.344 c 0,-0.447 0.13,-0.795 0.391,-1.044 C -1.882,0.124 -1.528,0 -1.082,0 L 0,0 z m 0,11.93 1.491,0 0,-13.049 -2.887,0 c -0.784,0 -1.417,0.23 -1.903,0.69 -0.484,0.459 -0.726,1.075 -0.726,1.845 l 0,4.642 c 0,0.533 0.146,0.988 0.437,1.359 0.292,0.374 0.655,0.627 1.091,0.765 L 0,9.059 0,11.93 z"
         transform="translate(3.539996,14.3457)" />
      <path
         inkscape:connector-curvature="0"
         id="path296"
         style="fill:#ffffff;fill-opacity:1;fill-rule:nonzero;stroke:none"
         d="m 0,0 0,-1.043 c 0,-0.336 0.123,-0.622 0.373,-0.858 0.248,-0.236 0.546,-0.353 0.894,-0.353 l 1.248,0 0,4.379 L 0.876,1.511 C 0.552,1.387 0.327,1.218 0.195,1.006 0.064,0.795 0,0.46 0,0 m -0.56,6.302 2.238,0 c 0.681,0 1.225,-0.204 1.63,-0.607 C 3.712,5.29 3.913,4.741 3.913,4.045 l 0,-7.438 -2.776,0 c -0.685,0 -1.265,0.243 -1.743,0.727 -0.479,0.485 -0.717,1.096 -0.717,1.827 l 0,0.97 c 0,0.584 0.146,1.074 0.437,1.473 C -0.594,2 -0.23,2.28 0.205,2.441 l 2.31,0.859 0,0.875 C 2.515,4.474 2.427,4.719 2.247,4.911 2.065,5.104 1.832,5.2 1.547,5.2 l -2.107,0 0,1.102 z"
         transform="translate(8.107396,16.6191)" />
      <path
         inkscape:connector-curvature="0"
         id="path300"
         style="fill:#ffffff;fill-opacity:1;fill-rule:nonzero;stroke:none"
         d="M 0,0 0,7.828 -1.659,7.27 C -1.983,7.17 -2.212,7.01 -2.34,6.795 -2.471,6.576 -2.537,6.231 -2.537,5.76 l 0,-4.344 c 0,-0.447 0.132,-0.795 0.392,-1.044 C -1.884,0.124 -1.529,0 -1.083,0 L 0,0 z m 0,11.93 1.489,0 0,-13.049 -2.887,0 c -0.784,0 -1.418,0.23 -1.902,0.69 -0.484,0.459 -0.727,1.075 -0.727,1.845 l 0,4.642 c 0,0.533 0.147,0.988 0.438,1.359 0.29,0.374 0.655,0.627 1.09,0.765 L 0,9.059 0,11.93 z"
         transform="translate(17.930596,14.3457)" />
      <path
         inkscape:connector-curvature="0"
         id="path304"
         style="fill:#ffffff;fill-opacity:1;fill-rule:nonzero;stroke:none"
         d="m 0,0 0,-2.405 c 0.286,0.087 0.59,0.17 0.913,0.251 0.322,0.081 0.544,0.14 0.662,0.176 0.117,0.039 0.247,0.082 0.39,0.131 0.144,0.05 0.227,0.112 0.254,0.187 0.072,0.199 0.109,0.41 0.109,0.634 l 0,1.026 c 0,0.769 -0.384,1.154 -1.154,1.154 -0.349,0 -0.63,-0.098 -0.848,-0.3 C 0.108,0.657 0,0.371 0,0 m 0.969,-6.432 2.012,0 0,-1.119 -2.236,0 c -0.683,0 -1.226,0.205 -1.63,0.616 -0.404,0.411 -0.606,0.963 -0.606,1.658 l 0,4.959 c 0,0.808 0.222,1.441 0.67,1.901 0.448,0.46 1.112,0.69 1.995,0.69 0.881,0 1.543,-0.23 1.984,-0.69 C 3.6,1.123 3.819,0.49 3.819,-0.318 l 0,-0.858 c 0,-0.895 -0.54,-1.491 -1.62,-1.79 L 0,-3.579 0,-5.406 C 0,-5.705 0.089,-5.95 0.27,-6.144 0.449,-6.336 0.683,-6.432 0.969,-6.432"
         transform="translate(22.8505,20.7773)" />
      <path
         inkscape:connector-curvature="0"
         id="path308"
         style="fill:#ffffff;fill-opacity:1;fill-rule:nonzero;stroke:none"
         d="M 0,0 0,7.829 -1.658,7.269 C -1.981,7.169 -2.208,7.012 -2.34,6.793 -2.469,6.576 -2.535,6.231 -2.535,5.76 l 0,-4.344 c 0,-0.447 0.131,-0.795 0.391,-1.043 C -1.883,0.125 -1.527,0 -1.08,0 L 0,0 z m 0,11.927 1.491,0 0,-13.046 -2.888,0 c -0.783,0 -1.417,0.23 -1.902,0.69 -0.485,0.46 -0.728,1.075 -0.728,1.845 l 0,4.642 c 0,0.534 0.147,0.988 0.439,1.36 0.293,0.373 0.655,0.629 1.091,0.766 L 0,9.058 0,11.927 z"
         transform="translate(-42.6465,-1.2481)" />
      <path
         inkscape:connector-curvature="0"
         id="path312"
         style="fill:#ffffff;fill-opacity:1;fill-rule:nonzero;stroke:none"
         d="m 0,0 0,-2.403 c 0.285,0.087 0.59,0.169 0.914,0.25 0.323,0.081 0.543,0.14 0.661,0.178 0.118,0.037 0.248,0.08 0.39,0.13 0.143,0.05 0.227,0.112 0.253,0.187 0.074,0.199 0.111,0.409 0.111,0.633 L 2.329,0 C 2.329,0.771 1.944,1.156 1.174,1.156 0.826,1.156 0.543,1.057 0.325,0.857 0.108,0.658 0,0.373 0,0 m 0.968,-6.43 2.014,0 0,-1.119 -2.237,0 c -0.683,0 -1.227,0.205 -1.63,0.615 -0.404,0.411 -0.607,0.964 -0.607,1.66 l 0,4.959 c 0,0.807 0.223,1.44 0.672,1.899 0.446,0.46 1.112,0.691 1.994,0.691 0.883,0 1.543,-0.231 1.985,-0.691 C 3.6,1.125 3.821,0.492 3.821,-0.315 l 0,-0.859 c 0,-0.894 -0.542,-1.491 -1.623,-1.788 L 0,-3.578 0,-5.405 C 0,-5.703 0.089,-5.949 0.27,-6.142 0.45,-6.334 0.684,-6.43 0.968,-6.43"
         transform="translate(-37.725596,5.181604)" />
      <path
         inkscape:connector-curvature="0"
         id="path316"
         style="fill:#ffffff;fill-opacity:1;fill-rule:nonzero;stroke:none"
         d="M 0,0 0,-1.043 C 0,-1.379 0.125,-1.665 0.372,-1.9 0.622,-2.137 0.92,-2.255 1.268,-2.255 l 1.249,0 0,4.381 L 0.876,1.51 C 0.552,1.386 0.327,1.217 0.196,1.007 0.065,0.795 0,0.46 0,0 m -0.561,6.301 2.238,0 C 2.361,6.301 2.903,6.099 3.31,5.695 3.713,5.289 3.915,4.741 3.915,4.046 l 0,-7.439 -2.777,0 c -0.684,0 -1.265,0.243 -1.743,0.729 -0.479,0.483 -0.717,1.092 -0.717,1.825 l 0,0.97 c 0,0.584 0.145,1.074 0.436,1.472 C -0.594,2 -0.23,2.279 0.206,2.442 l 2.311,0.858 0,0.876 c 0,0.298 -0.09,0.542 -0.271,0.735 -0.181,0.193 -0.413,0.29 -0.7,0.29 l -2.107,0 0,1.1 z"
         transform="translate(-28.7793,1.025396)" />
      <path
         inkscape:connector-curvature="0"
         id="path320"
         style="fill:#ffffff;fill-opacity:1;fill-rule:nonzero;stroke:none"
         d="m 0,0 1.417,7.811 1.548,0 -2.219,-9.694 -1.51,0 -2.217,9.694 1.547,0 L 0,0 z"
         transform="translate(-20.6719,-0.484396)" />
      <path
         inkscape:connector-curvature="0"
         id="path324"
         style="fill:#ffffff;fill-opacity:1;fill-rule:nonzero;stroke:none"
         d="m 0,0 0,-2.403 c 0.284,0.087 0.589,0.169 0.913,0.25 0.32,0.081 0.542,0.14 0.661,0.178 0.117,0.037 0.248,0.08 0.391,0.13 0.142,0.05 0.226,0.112 0.252,0.187 0.074,0.199 0.112,0.409 0.112,0.633 L 2.329,0 C 2.329,0.771 1.942,1.156 1.173,1.156 0.825,1.156 0.542,1.057 0.324,0.857 0.106,0.658 0,0.373 0,0 m 0.968,-6.43 2.013,0 0,-1.119 -2.237,0 c -0.683,0 -1.226,0.205 -1.63,0.615 -0.406,0.411 -0.606,0.964 -0.606,1.66 l 0,4.959 c 0,0.807 0.223,1.44 0.671,1.899 0.447,0.46 1.112,0.691 1.994,0.691 0.883,0 1.545,-0.231 1.986,-0.691 C 3.6,1.125 3.82,0.492 3.82,-0.315 l 0,-0.859 c 0,-0.894 -0.541,-1.491 -1.622,-1.788 L 0,-3.578 0,-5.405 C 0,-5.703 0.088,-5.949 0.27,-6.142 0.449,-6.334 0.682,-6.43 0.968,-6.43"
         transform="translate(-15.1153,5.181604)" />
      <path
         inkscape:connector-curvature="0"
         id="path326"
         style="fill:#ffffff;fill-opacity:1;fill-rule:nonzero;stroke:none"
         d="m 115.042,536.447 1.492,0 0,-9.693 -1.492,0 0,9.693 z m 0,3.076 1.492,0 0,-1.492 -1.492,0 0,1.492 z"
         transform="translate(-124.8477,-529.1211)" />
      <path
         inkscape:connector-curvature="0"
         id="path330"
         style="fill:#ffffff;fill-opacity:1;fill-rule:nonzero;stroke:none"
         d="m 0,0 0,-1.101 c -0.325,0 -1.025,-0.26 -2.106,-0.782 l 0,-7.941 -1.493,0 0,9.693 1.157,0 0.167,-0.691 c 0.757,0.374 1.28,0.604 1.567,0.691 C -0.423,-0.045 -0.187,0 0,0"
         transform="translate(-2.478604,7.456996)" />
      <path
         inkscape:connector-curvature="0"
         id="path334"
         style="fill:#ffffff;fill-opacity:1;fill-rule:nonzero;stroke:none"
         d="m 0,0 c 0,-0.436 0.115,-0.768 0.344,-0.996 0.23,-0.231 0.544,-0.346 0.941,-0.346 0.398,0 0.712,0.115 0.942,0.346 0.229,0.228 0.345,0.56 0.345,0.996 l 0,4.957 c 0,0.436 -0.116,0.77 -0.345,0.998 C 1.997,6.186 1.683,6.3 1.285,6.3 0.888,6.3 0.574,6.186 0.344,5.955 0.115,5.727 0,5.393 0,4.957 L 0,0 z m 4.026,0 c 0,-0.781 -0.24,-1.395 -0.718,-1.836 -0.478,-0.44 -1.153,-0.662 -2.023,-0.662 -0.869,0 -1.544,0.222 -2.022,0.662 -0.478,0.441 -0.717,1.055 -0.717,1.836 l 0,4.957 c 0,0.784 0.239,1.397 0.717,1.838 0.478,0.44 1.153,0.662 2.022,0.662 0.87,0 1.545,-0.222 2.023,-0.662 C 3.786,6.354 4.026,5.741 4.026,4.957 L 4.026,0 z" />
    </g>
  </g>
</svg>
