<?xml version="1.0" encoding="UTF-8" standalone="no"?>
<!-- Created with Inkscape (http://www.inkscape.org/) -->

<svg
   xmlns:dc="http://purl.org/dc/elements/1.1/"
   xmlns:cc="http://creativecommons.org/ns#"
   xmlns:rdf="http://www.w3.org/1999/02/22-rdf-syntax-ns#"
   xmlns:svg="http://www.w3.org/2000/svg"
   xmlns="http://www.w3.org/2000/svg"
   xmlns:sodipodi="http://sodipodi.sourceforge.net/DTD/sodipodi-0.dtd"
   xmlns:inkscape="http://www.inkscape.org/namespaces/inkscape"
   width="529"
   height="57"
   viewBox="0 0 139.96457 15.081249"
   version="1.1"
   id="svg7970"
   inkscape:version="0.92.1 r"
   sodipodi:docname="ua_deti.svg">
  <defs
     id="defs7964" />
  <sodipodi:namedview
     id="base"
     pagecolor="#ffffff"
     bordercolor="#666666"
     borderopacity="1.0"
     inkscape:pageopacity="0.0"
     inkscape:pageshadow="2"
     inkscape:zoom="0.98994949"
     inkscape:cx="400"
     inkscape:cy="115.53288"
     inkscape:document-units="mm"
     inkscape:current-layer="layer1"
     showgrid="false"
     units="px"
     inkscape:window-width="1920"
     inkscape:window-height="1025"
     inkscape:window-x="0"
     inkscape:window-y="27"
     inkscape:window-maximized="1" />
  <metadata
     id="metadata7967">
    <rdf:RDF>
      <cc:Work
         rdf:about="">
        <dc:format>image/svg+xml</dc:format>
        <dc:type
           rdf:resource="http://purl.org/dc/dcmitype/StillImage" />
        <dc:title></dc:title>
      </cc:Work>
    </rdf:RDF>
  </metadata>
  <g
     inkscape:label="Layer 1"
     inkscape:groupmode="layer"
     id="layer1"
     transform="translate(0,-281.91875)">
    <g
       transform="matrix(0.35277777,0,0,-0.35277777,-15.279606,484.64808)"
       id="g7805"
       style="fill:#000000">
      <g
         transform="translate(204.73,564.3369)"
         id="g316"
         style="fill:#000000">
        <path
           inkscape:connector-curvature="0"
           id="path318"
           style="fill:#000000;fill-opacity:1;fill-rule:evenodd;stroke:none"
           d="m 0,0 c 0.93,0 1.773,0.374 2.387,0.979 l 4.155,5.163 c 0.286,0.365 0.727,0.6 1.226,0.6 0.082,0 0.163,-0.006 0.241,-0.018 2.723,-0.407 4.634,-2.708 4.634,-5.49 l 0.002,-27.751 c 0,-3.068 -2.489,-5.556 -5.558,-5.556 h -27.775 c -3.07,0 -5.558,2.488 -5.558,5.556 l 0.002,27.751 c 0,2.782 1.91,5.083 4.634,5.49 0.078,0.012 0.159,0.018 0.241,0.018 0.499,0 0.939,-0.235 1.225,-0.6 l 4.156,-5.163 C -15.375,0.374 -14.504,0 -13.574,0 c 1.874,0 3.364,1.519 3.364,3.392 l -0.003,1.755 0.004,4.337 c 0,0.336 0.262,0.604 0.597,0.604 C -6.13,9.802 -3.425,6.95 -3.425,3.392 -3.425,1.519 -1.873,0 0,0 m -1.256,-26.548 c -1.45,0 -2.709,-0.818 -3.415,-2.113 -0.297,-0.52 -0.858,-0.871 -1.5,-0.871 h -0.646 c -0.642,0 -1.204,0.351 -1.575,0.967 -0.631,1.199 -1.89,2.017 -3.341,2.017 h -8.057 c -0.485,0 -0.892,0.394 -0.892,0.879 l 0.005,10.831 c 0,0.485 0.358,0.906 0.843,0.906 h 8.101 c 1.451,0 2.71,-0.818 3.416,-2.113 0.296,-0.52 0.858,-0.871 1.5,-0.871 h 0.646 c 0.642,0 1.203,0.351 1.574,0.967 0.632,1.199 1.891,2.017 3.341,2.017 l 7.475,-0.005 c 0.485,0 0.865,-0.393 0.865,-0.877 l -0.01,-10.859 c 0,-0.485 -0.408,-0.878 -0.892,-0.878 z" />
      </g>
      <g
         transform="translate(238.2397,554.9453)"
         id="g320"
         style="fill:#000000">
        <path
           inkscape:connector-curvature="0"
           id="path322"
           style="fill:#000000;fill-opacity:1;fill-rule:evenodd;stroke:none"
           d="m 0,0 h -2.736 v -6.336 h -0.048 c -0.841,1.368 -2.569,1.944 -4.128,1.944 -2.713,0 -5.376,-1.967 -5.376,-6.456 0,-3.72 1.895,-6.624 5.808,-6.624 1.559,0 3.12,0.6 3.839,2.016 h 0.048 v -1.68 H 0 Z m -9.553,-11.063 c 0,2.231 0.912,4.511 3.481,4.511 2.112,0 3.431,-1.632 3.431,-4.368 0,-2.16 -1.032,-4.392 -3.479,-4.392 -2.376,0 -3.433,2.112 -3.433,4.249" />
      </g>
      <g
         transform="translate(242.8687,545.1055)"
         id="g324"
         style="fill:#000000">
        <path
           inkscape:connector-curvature="0"
           id="path326"
           style="fill:#000000;fill-opacity:1;fill-rule:evenodd;stroke:none"
           d="M 0,0 C 0.072,1.848 1.368,3.288 3.265,3.288 5.112,3.288 6.288,1.729 6.384,0 Z m 9.12,-1.8 c 0.456,3.72 -1.944,7.248 -5.855,7.248 -3.697,0 -6,-3.024 -6,-6.552 0,-3.816 2.183,-6.528 6.071,-6.528 2.712,0 5.016,1.512 5.616,4.224 H 6.36 C 5.88,-4.776 4.92,-5.472 3.336,-5.472 1.056,-5.472 0,-3.744 0,-1.8 Z" />
      </g>
      <g
         transform="translate(252.3462,548.1777)"
         id="g328"
         style="fill:#000000">
        <path
           inkscape:connector-curvature="0"
           id="path330"
           style="fill:#000000;fill-opacity:1;fill-rule:evenodd;stroke:none"
           d="m 0,0 h 2.063 v -7.32 c 0.049,-2.064 0.577,-3.168 3.433,-3.168 0.6,0 1.176,0.095 1.776,0.144 v 2.112 C 6.888,-8.328 6.504,-8.328 6.12,-8.328 4.896,-8.328 4.8,-7.752 4.8,-6.624 V 0 H 7.272 V 2.04 H 4.8 V 5.76 H 2.063 V 2.04 H 0 Z" />
      </g>
      <path
         inkscape:connector-curvature="0"
         id="path332"
         style="fill:#000000;fill-opacity:1;fill-rule:evenodd;stroke:none"
         d="m 261.171,552.354 h 2.736 v 2.592 h -2.736 z m 0,-14.544 h 2.736 v 12.408 h -2.736 z" />
      <g
         transform="translate(50.7827,544.311)"
         id="g334"
         style="fill:#000000">
        <path
           inkscape:connector-curvature="0"
           id="path336"
           style="fill:#000000;fill-opacity:1;fill-rule:evenodd;stroke:none"
           d="m 0,0 h -1.437 v -3.78 c 0,-1.008 -0.403,-1.777 -1.6,-1.777 -0.781,0 -1.247,0.416 -1.247,1.563 V 0 h -1.437 v -4.133 c 0,-1.7 0.731,-2.558 2.432,-2.558 0.719,0 1.5,0.429 1.852,1.084 h 0.026 V -6.514 H 0 Z" />
      </g>
      <g
         transform="translate(52.0415,537.7969)"
         id="g338"
         style="fill:#000000">
        <path
           inkscape:connector-curvature="0"
           id="path340"
           style="fill:#000000;fill-opacity:1;fill-rule:evenodd;stroke:none"
           d="m 0,0 h 1.437 v 3.843 c 0,0.958 0.618,1.714 1.575,1.714 0.844,0 1.247,-0.441 1.272,-1.462 V 0 H 5.721 V 4.473 C 5.721,5.935 4.826,6.69 3.415,6.69 2.559,6.69 1.814,6.25 1.387,5.531 L 1.361,5.557 V 6.514 H 0 Z" />
      </g>
      <path
         inkscape:connector-curvature="0"
         id="path342"
         style="fill:#000000;fill-opacity:1;fill-rule:evenodd;stroke:none"
         d="m 59.06,545.433 h 1.436 v 1.36 H 59.06 Z m 0,-7.636 h 1.436 v 6.514 H 59.06 Z" />
      <g
         transform="translate(63.5317,537.7969)"
         id="g344"
         style="fill:#000000">
        <path
           inkscape:connector-curvature="0"
           id="path346"
           style="fill:#000000;fill-opacity:1;fill-rule:evenodd;stroke:none"
           d="M 0,0 H 1.612 L 3.943,6.514 H 2.456 L 0.869,1.512 H 0.844 l -1.651,5.002 h -1.562 z" />
      </g>
      <g
         transform="translate(69.2104,541.627)"
         id="g348"
         style="fill:#000000">
        <path
           inkscape:connector-curvature="0"
           id="path350"
           style="fill:#000000;fill-opacity:1;fill-rule:evenodd;stroke:none"
           d="M 0,0 C 0.038,0.971 0.719,1.727 1.714,1.727 2.685,1.727 3.302,0.907 3.352,0 Z M 4.789,-0.944 C 5.028,1.008 3.768,2.86 1.714,2.86 c -1.941,0 -3.15,-1.587 -3.15,-3.439 0,-2.004 1.147,-3.428 3.188,-3.428 1.424,0 2.633,0.794 2.948,2.218 H 3.34 C 3.088,-2.507 2.584,-2.873 1.752,-2.873 0.555,-2.873 0,-1.965 0,-0.944 Z" />
      </g>
      <g
         transform="translate(74.8413,537.7969)"
         id="g352"
         style="fill:#000000">
        <path
           inkscape:connector-curvature="0"
           id="path354"
           style="fill:#000000;fill-opacity:1;fill-rule:evenodd;stroke:none"
           d="m 0,0 h 1.437 v 3.1 c 0,1.436 0.781,2.23 1.764,2.23 0.201,0 0.415,-0.038 0.617,-0.063 V 6.653 C 3.692,6.666 3.604,6.69 3.276,6.69 2.395,6.69 1.538,5.947 1.374,5.254 H 1.349 v 1.26 L 0,6.514 Z" />
      </g>
      <g
         transform="translate(78.6694,539.8887)"
         id="g356"
         style="fill:#000000">
        <path
           inkscape:connector-curvature="0"
           id="path358"
           style="fill:#000000;fill-opacity:1;fill-rule:evenodd;stroke:none"
           d="m 0,0 c 0.024,-1.537 1.247,-2.269 2.885,-2.269 1.348,0 2.911,0.568 2.911,2.118 0,1.285 -1.059,1.663 -2.105,1.902 -1.058,0.24 -2.117,0.34 -2.117,1.046 0,0.567 0.77,0.668 1.185,0.668 0.63,0 1.197,-0.19 1.323,-0.87 h 1.5 C 5.405,4.044 4.195,4.599 2.859,4.599 1.676,4.599 0.139,4.158 0.139,2.734 0.139,1.411 1.172,1.033 2.229,0.806 3.275,0.566 4.321,0.479 4.359,-0.277 4.396,-1.021 3.452,-1.134 2.91,-1.134 2.142,-1.134 1.512,-0.832 1.436,0 Z" />
      </g>
      <path
         inkscape:connector-curvature="0"
         id="path360"
         style="fill:#000000;fill-opacity:1;fill-rule:evenodd;stroke:none"
         d="m 85.344,545.433 h 1.437 v 1.36 h -1.437 z m 0,-7.636 h 1.437 v 6.514 h -1.437 z" />
      <g
         transform="translate(94.2261,546.793)"
         id="g362"
         style="fill:#000000">
        <path
           inkscape:connector-curvature="0"
           id="path364"
           style="fill:#000000;fill-opacity:1;fill-rule:evenodd;stroke:none"
           d="m 0,0 h -1.437 v -3.326 h -0.025 c -0.441,0.718 -1.349,1.02 -2.167,1.02 -1.424,0 -2.822,-1.033 -2.822,-3.389 0,-1.953 0.995,-3.478 3.049,-3.478 0.819,0 1.637,0.316 2.015,1.059 h 0.026 V -8.996 H 0 Z m -5.015,-5.809 c 0,1.172 0.479,2.37 1.827,2.37 1.109,0 1.801,-0.857 1.801,-2.293 0,-1.135 -0.541,-2.307 -1.826,-2.307 -1.248,0 -1.802,1.109 -1.802,2.23" />
      </g>
      <g
         transform="translate(100.9907,542.5977)"
         id="g366"
         style="fill:#000000">
        <path
           inkscape:connector-curvature="0"
           id="path368"
           style="fill:#000000;fill-opacity:1;fill-rule:evenodd;stroke:none"
           d="m 0,0 c 0,1.373 -1.336,1.89 -2.608,1.89 -1.437,0 -2.861,-0.492 -2.961,-2.167 h 1.436 c 0.064,0.705 0.63,1.033 1.437,1.033 0.579,0 1.347,-0.139 1.347,-0.882 0,-0.845 -0.92,-0.731 -1.953,-0.92 -1.209,-0.139 -2.507,-0.403 -2.507,-2.029 0,-1.272 1.059,-1.903 2.231,-1.903 0.768,0 1.688,0.24 2.255,0.794 0.113,-0.591 0.529,-0.794 1.109,-0.794 0.239,0 0.693,0.089 0.907,0.165 v 0.995 C 0.542,-3.843 0.429,-3.843 0.34,-3.843 0.075,-3.843 0,-3.705 0,-3.352 Z m -1.437,-2.608 c 0,-0.908 -0.982,-1.235 -1.612,-1.235 -0.505,0 -1.323,0.189 -1.323,0.831 0,0.756 0.555,0.983 1.172,1.084 0.63,0.114 1.322,0.101 1.763,0.391 z" />
      </g>
      <g
         transform="translate(108.4233,546.793)"
         id="g370"
         style="fill:#000000">
        <path
           inkscape:connector-curvature="0"
           id="path372"
           style="fill:#000000;fill-opacity:1;fill-rule:evenodd;stroke:none"
           d="m 0,0 h -1.437 v -3.326 h -0.025 c -0.44,0.718 -1.348,1.02 -2.167,1.02 -1.424,0 -2.822,-1.033 -2.822,-3.389 0,-1.953 0.995,-3.478 3.049,-3.478 0.819,0 1.638,0.316 2.016,1.059 h 0.025 V -8.996 H 0 Z m -5.015,-5.809 c 0,1.172 0.479,2.37 1.827,2.37 1.109,0 1.802,-0.857 1.802,-2.293 0,-1.135 -0.542,-2.307 -1.827,-2.307 -1.248,0 -1.802,1.109 -1.802,2.23" />
      </g>
      <g
         transform="translate(110.854,541.627)"
         id="g374"
         style="fill:#000000">
        <path
           inkscape:connector-curvature="0"
           id="path376"
           style="fill:#000000;fill-opacity:1;fill-rule:evenodd;stroke:none"
           d="M 0,0 C 0.037,0.971 0.718,1.727 1.714,1.727 2.684,1.727 3.301,0.907 3.352,0 Z M 4.788,-0.944 C 5.027,1.008 3.767,2.86 1.714,2.86 c -1.942,0 -3.151,-1.587 -3.151,-3.439 0,-2.004 1.147,-3.428 3.188,-3.428 1.424,0 2.634,0.794 2.948,2.218 H 3.339 C 3.087,-2.507 2.583,-2.873 1.751,-2.873 0.554,-2.873 0,-1.965 0,-0.944 Z" />
      </g>
      <g
         transform="translate(125.8677,546.793)"
         id="g378"
         style="fill:#000000">
        <path
           inkscape:connector-curvature="0"
           id="path380"
           style="fill:#000000;fill-opacity:1;fill-rule:evenodd;stroke:none"
           d="m 0,0 h -1.437 v -3.326 h -0.025 c -0.44,0.718 -1.348,1.02 -2.167,1.02 -1.424,0 -2.822,-1.033 -2.822,-3.389 0,-1.953 0.995,-3.478 3.049,-3.478 0.819,0 1.637,0.316 2.016,1.059 h 0.025 V -8.996 H 0 Z m -5.015,-5.809 c 0,1.172 0.479,2.37 1.827,2.37 1.109,0 1.802,-0.857 1.802,-2.293 0,-1.135 -0.542,-2.307 -1.827,-2.307 -1.248,0 -1.802,1.109 -1.802,2.23" />
      </g>
      <g
         transform="translate(128.2983,541.627)"
         id="g382"
         style="fill:#000000">
        <path
           inkscape:connector-curvature="0"
           id="path384"
           style="fill:#000000;fill-opacity:1;fill-rule:evenodd;stroke:none"
           d="M 0,0 C 0.037,0.971 0.718,1.727 1.713,1.727 2.684,1.727 3.301,0.907 3.352,0 Z M 4.788,-0.944 C 5.027,1.008 3.768,2.86 1.713,2.86 c -1.94,0 -3.15,-1.587 -3.15,-3.439 0,-2.004 1.147,-3.428 3.188,-3.428 1.424,0 2.634,0.794 2.948,2.218 H 3.339 C 3.087,-2.507 2.583,-2.873 1.751,-2.873 0.554,-2.873 0,-1.965 0,-0.944 Z" />
      </g>
      <g
         transform="translate(142.6313,542.5977)"
         id="g386"
         style="fill:#000000">
        <path
           inkscape:connector-curvature="0"
           id="path388"
           style="fill:#000000;fill-opacity:1;fill-rule:evenodd;stroke:none"
           d="m 0,0 c 0,1.373 -1.335,1.89 -2.608,1.89 -1.436,0 -2.86,-0.492 -2.961,-2.167 h 1.436 c 0.064,0.705 0.63,1.033 1.437,1.033 0.58,0 1.348,-0.139 1.348,-0.882 0,-0.845 -0.92,-0.731 -1.953,-0.92 -1.21,-0.139 -2.508,-0.403 -2.508,-2.029 0,-1.272 1.059,-1.903 2.231,-1.903 0.768,0 1.688,0.24 2.255,0.794 0.114,-0.591 0.529,-0.794 1.109,-0.794 0.239,0 0.693,0.089 0.907,0.165 v 0.995 C 0.542,-3.843 0.429,-3.843 0.341,-3.843 0.075,-3.843 0,-3.705 0,-3.352 Z m -1.437,-2.608 c 0,-0.908 -0.982,-1.235 -1.612,-1.235 -0.504,0 -1.323,0.189 -1.323,0.831 0,0.756 0.555,0.983 1.172,1.084 0.63,0.114 1.323,0.101 1.763,0.391 z" />
      </g>
      <g
         transform="translate(145.6538,537.7969)"
         id="g390"
         style="fill:#000000">
        <path
           inkscape:connector-curvature="0"
           id="path392"
           style="fill:#000000;fill-opacity:1;fill-rule:evenodd;stroke:none"
           d="M 0,0 H 1.613 L 3.944,6.514 H 2.457 L 0.87,1.512 H 0.845 l -1.652,5.002 h -1.561 z" />
      </g>
      <g
         transform="translate(151.3335,541.627)"
         id="g394"
         style="fill:#000000">
        <path
           inkscape:connector-curvature="0"
           id="path396"
           style="fill:#000000;fill-opacity:1;fill-rule:evenodd;stroke:none"
           d="M 0,0 C 0.038,0.971 0.719,1.727 1.714,1.727 2.684,1.727 3.302,0.907 3.352,0 Z M 4.788,-0.944 C 5.027,1.008 3.768,2.86 1.714,2.86 c -1.941,0 -3.15,-1.587 -3.15,-3.439 0,-2.004 1.147,-3.428 3.188,-3.428 1.424,0 2.633,0.794 2.948,2.218 H 3.34 C 3.087,-2.507 2.583,-2.873 1.752,-2.873 0.555,-2.873 0,-1.965 0,-0.944 Z" />
      </g>
      <path
         inkscape:connector-curvature="0"
         id="path398"
         style="fill:#000000;fill-opacity:1;fill-rule:evenodd;stroke:none"
         d="m 157.002,545.433 h 1.437 v 1.36 h -1.437 z m 0,-7.636 h 1.437 v 6.514 h -1.437 z" />
      <g
         transform="translate(159.7476,537.7969)"
         id="g400"
         style="fill:#000000">
        <path
           inkscape:connector-curvature="0"
           id="path402"
           style="fill:#000000;fill-opacity:1;fill-rule:evenodd;stroke:none"
           d="m 0,0 h 1.437 v 3.1 c 0,1.436 0.781,2.23 1.764,2.23 0.201,0 0.415,-0.038 0.617,-0.063 V 6.653 C 3.692,6.666 3.604,6.69 3.276,6.69 2.395,6.69 1.537,5.947 1.374,5.254 H 1.349 v 1.26 L 0,6.514 Z" />
      </g>
      <g
         transform="translate(166.687,537.6201)"
         id="g404"
         style="fill:#000000">
        <path
           inkscape:connector-curvature="0"
           id="path406"
           style="fill:#000000;fill-opacity:1;fill-rule:evenodd;stroke:none"
           d="M 0,0 C 2.092,0 3.289,1.437 3.289,3.44 3.289,5.431 2.092,6.867 0,6.867 -2.091,6.867 -3.288,5.431 -3.288,3.44 -3.288,1.437 -2.091,0 0,0 m 0,1.134 c -1.284,0 -1.852,1.172 -1.852,2.306 0,1.122 0.568,2.293 1.852,2.293 1.286,0 1.853,-1.171 1.853,-2.293 C 1.853,2.306 1.286,1.134 0,1.134" />
      </g>
      <g
         transform="translate(274.3999,546.5923)"
         id="g408"
         style="fill:#000000">
        <path
           inkscape:connector-curvature="0"
           id="path410"
           style="fill:#000000;fill-opacity:1;fill-rule:evenodd;stroke:none"
           d="m 0,0 h -0.794 v -1.953 h -1.134 v -0.668 h 1.134 v -4.448 c -0.013,-1.108 0.354,-1.461 1.411,-1.461 0.24,0 0.467,0.025 0.706,0.025 v 0.68 C 1.097,-7.85 0.869,-7.863 0.643,-7.863 0.076,-7.825 0,-7.522 0,-7.005 v 4.384 h 1.323 v 0.668 H 0 Z" />
      </g>
      <g
         transform="translate(277.2095,541.8418)"
         id="g412"
         style="fill:#000000">
        <path
           inkscape:connector-curvature="0"
           id="path414"
           style="fill:#000000;fill-opacity:1;fill-rule:evenodd;stroke:none"
           d="M 0,0 C 0.126,1.185 0.844,2.318 2.142,2.318 3.427,2.318 4.17,1.197 4.208,0 Z m 5.002,-0.668 c 0.062,1.827 -0.769,3.654 -2.86,3.654 -2.067,0 -2.936,-1.726 -2.936,-3.439 0,-1.853 0.869,-3.44 2.936,-3.44 1.637,0 2.495,0.856 2.835,2.33 H 4.183 C 3.931,-2.545 3.301,-3.226 2.142,-3.226 0.617,-3.226 0.013,-1.827 0,-0.668 Z" />
      </g>
      <path
         inkscape:connector-curvature="0"
         id="path416"
         style="fill:#000000;fill-opacity:1;fill-rule:evenodd;stroke:none"
         d="m 283.166,538.138 h 0.794 v 8.996 h -0.794 z" />
      <g
         transform="translate(285.8218,541.8418)"
         id="g418"
         style="fill:#000000">
        <path
           inkscape:connector-curvature="0"
           id="path420"
           style="fill:#000000;fill-opacity:1;fill-rule:evenodd;stroke:none"
           d="M 0,0 C 0.126,1.185 0.844,2.318 2.142,2.318 3.427,2.318 4.17,1.197 4.208,0 Z m 5.002,-0.668 c 0.062,1.827 -0.769,3.654 -2.86,3.654 -2.067,0 -2.936,-1.726 -2.936,-3.439 0,-1.853 0.869,-3.44 2.936,-3.44 1.637,0 2.495,0.856 2.835,2.33 H 4.183 C 3.931,-2.545 3.301,-3.226 2.142,-3.226 0.617,-3.226 0.013,-1.827 0,-0.668 Z" />
      </g>
      <g
         transform="translate(297.146,542.5981)"
         id="g422"
         style="fill:#000000">
        <path
           inkscape:connector-curvature="0"
           id="path424"
           style="fill:#000000;fill-opacity:1;fill-rule:evenodd;stroke:none"
           d="m 0,0 c -0.176,1.487 -1.247,2.23 -2.633,2.23 -1.991,0 -3.075,-1.575 -3.075,-3.439 0,-1.866 1.084,-3.44 3.075,-3.44 1.448,0 2.469,0.957 2.684,2.52 h -0.794 c -0.101,-1.084 -0.907,-1.853 -1.89,-1.853 -1.525,0 -2.281,1.386 -2.281,2.773 0,1.385 0.756,2.771 2.281,2.771 1.033,0 1.625,-0.592 1.839,-1.562 z" />
      </g>
      <g
         transform="translate(300.9233,544.1602)"
         id="g426"
         style="fill:#000000">
        <path
           inkscape:connector-curvature="0"
           id="path428"
           style="fill:#000000;fill-opacity:1;fill-rule:evenodd;stroke:none"
           d="m 0,0 c 1.524,0 2.28,-1.386 2.28,-2.771 0,-1.387 -0.756,-2.773 -2.28,-2.773 -1.524,0 -2.281,1.386 -2.281,2.773 C -2.281,-1.386 -1.524,0 0,0 m 0,0.668 c -1.991,0 -3.074,-1.575 -3.074,-3.439 0,-1.866 1.083,-3.44 3.074,-3.44 1.99,0 3.074,1.574 3.074,3.44 0,1.864 -1.084,3.439 -3.074,3.439" />
      </g>
      <g
         transform="translate(305.0542,538.1377)"
         id="g430"
         style="fill:#000000">
        <path
           inkscape:connector-curvature="0"
           id="path432"
           style="fill:#000000;fill-opacity:1;fill-rule:evenodd;stroke:none"
           d="m 0,0 h 0.794 v 3.629 c 0.013,1.36 0.567,2.393 1.94,2.393 1.008,0 1.374,-0.73 1.362,-1.612 V 0 H 4.89 v 3.679 c 0,1.21 0.39,2.343 1.763,2.343 1.134,0 1.537,-0.579 1.537,-1.65 V 0 H 8.984 V 4.41 C 8.984,5.947 8.254,6.69 6.83,6.69 5.973,6.69 5.154,6.274 4.764,5.418 4.524,6.274 3.756,6.69 2.898,6.69 1.865,6.69 1.186,6.187 0.77,5.405 H 0.731 V 6.501 H 0 Z" />
      </g>
      <g
         transform="translate(320.689,544.6392)"
         id="g434"
         style="fill:#000000">
        <path
           inkscape:connector-curvature="0"
           id="path436"
           style="fill:#000000;fill-opacity:1;fill-rule:evenodd;stroke:none"
           d="m 0,0 h -0.794 v -3.415 c 0,-1.323 -0.593,-2.608 -1.953,-2.608 -1.26,0 -1.701,0.618 -1.739,1.789 V 0 h -0.793 v -4.221 c 0,-1.512 0.642,-2.469 2.28,-2.469 0.97,0 1.827,0.491 2.243,1.36 h 0.025 V -6.501 H 0 Z" />
      </g>
      <g
         transform="translate(322.0474,538.1377)"
         id="g438"
         style="fill:#000000">
        <path
           inkscape:connector-curvature="0"
           id="path440"
           style="fill:#000000;fill-opacity:1;fill-rule:evenodd;stroke:none"
           d="m 0,0 h 0.794 v 3.792 c 0.025,1.273 0.781,2.23 2.041,2.23 1.285,0 1.65,-0.843 1.65,-1.965 V 0 H 5.279 V 4.183 C 5.279,5.733 4.726,6.69 2.898,6.69 1.979,6.69 1.108,6.161 0.819,5.38 H 0.794 V 6.501 H 0 Z" />
      </g>
      <path
         inkscape:connector-curvature="0"
         id="path442"
         style="fill:#000000;fill-opacity:1;fill-rule:evenodd;stroke:none"
         d="m 328.71,545.861 h 0.794 v 1.272 h -0.794 z m 0,-7.723 h 0.794 v 6.501 h -0.794 z" />
      <g
         transform="translate(336.2808,542.5981)"
         id="g444"
         style="fill:#000000">
        <path
           inkscape:connector-curvature="0"
           id="path446"
           style="fill:#000000;fill-opacity:1;fill-rule:evenodd;stroke:none"
           d="m 0,0 c -0.177,1.487 -1.248,2.23 -2.634,2.23 -1.991,0 -3.074,-1.575 -3.074,-3.439 0,-1.866 1.083,-3.44 3.074,-3.44 1.449,0 2.47,0.957 2.684,2.52 h -0.794 c -0.101,-1.084 -0.907,-1.853 -1.89,-1.853 -1.524,0 -2.28,1.386 -2.28,2.773 0,1.385 0.756,2.771 2.28,2.771 1.033,0 1.625,-0.592 1.84,-1.562 z" />
      </g>
      <g
         transform="translate(338.0288,542.6484)"
         id="g448"
         style="fill:#000000">
        <path
           inkscape:connector-curvature="0"
           id="path450"
           style="fill:#000000;fill-opacity:1;fill-rule:evenodd;stroke:none"
           d="m 0,0 c 0.025,1.059 0.756,1.512 1.739,1.512 0.932,0 1.7,-0.265 1.7,-1.336 0,-0.718 -0.365,-0.806 -1.02,-0.882 -1.713,-0.201 -3.49,-0.264 -3.49,-2.091 0,-1.31 0.983,-1.903 2.18,-1.903 1.247,0 1.814,0.479 2.369,1.323 h 0.025 c 0,-0.681 0.126,-1.134 0.933,-1.134 0.213,0 0.339,0.013 0.516,0.051 v 0.668 C 4.889,-3.818 4.788,-3.843 4.7,-3.843 c -0.315,0 -0.467,0.176 -0.467,0.479 V 0.088 C 4.233,1.827 2.986,2.18 1.84,2.18 0.353,2.18 -0.719,1.524 -0.794,0 Z m 3.439,-1.991 c 0.013,-1.273 -1.058,-2.041 -2.267,-2.041 -0.743,0 -1.449,0.491 -1.449,1.285 0,1.272 1.675,1.26 3.024,1.5 0.214,0.037 0.566,0.101 0.667,0.289 h 0.025 z" />
      </g>
      <g
         transform="translate(349.1011,542.5981)"
         id="g452"
         style="fill:#000000">
        <path
           inkscape:connector-curvature="0"
           id="path454"
           style="fill:#000000;fill-opacity:1;fill-rule:evenodd;stroke:none"
           d="m 0,0 c -0.176,1.487 -1.247,2.23 -2.633,2.23 -1.991,0 -3.074,-1.575 -3.074,-3.439 0,-1.866 1.083,-3.44 3.074,-3.44 1.449,0 2.469,0.957 2.684,2.52 h -0.794 c -0.101,-1.084 -0.907,-1.853 -1.89,-1.853 -1.525,0 -2.281,1.386 -2.281,2.773 0,1.385 0.756,2.771 2.281,2.771 1.033,0 1.625,-0.592 1.839,-1.562 z m -2.885,-4.46 -0.768,-0.996 0.201,-0.189 c 0.151,0.076 0.352,0.101 0.642,0.101 0.29,0 0.542,-0.177 0.542,-0.479 0,-0.378 -0.315,-0.542 -0.668,-0.542 -0.365,0 -0.781,0.088 -0.995,0.177 l -0.176,-0.404 c 0.365,-0.176 0.781,-0.264 1.184,-0.264 0.643,0 1.386,0.315 1.386,1.084 0,0.781 -0.869,0.894 -1.462,0.781 l 0.555,0.731 z" />
      </g>
      <g
         transform="translate(352.8784,544.1602)"
         id="g456"
         style="fill:#000000">
        <path
           inkscape:connector-curvature="0"
           id="path458"
           style="fill:#000000;fill-opacity:1;fill-rule:evenodd;stroke:none"
           d="m 0,0 c 1.524,0 2.28,-1.386 2.28,-2.771 0,-1.387 -0.756,-2.773 -2.28,-2.773 -1.524,0 -2.28,1.386 -2.28,2.773 C -2.28,-1.386 -1.524,0 0,0 m 0,0.668 c -1.991,0 -3.074,-1.575 -3.074,-3.439 0,-1.866 1.083,-3.44 3.074,-3.44 1.991,0 3.074,1.574 3.074,3.44 0,1.864 -1.083,3.439 -3.074,3.439 m 1.5,2.23 C 1.398,2.571 1.235,2.293 0.844,2.293 c -0.227,0 -0.479,0.139 -0.756,0.278 -0.277,0.138 -0.579,0.277 -0.944,0.277 -0.668,0 -1.046,-0.618 -1.123,-1.21 h 0.493 c 0,0.416 0.289,0.643 0.667,0.643 0.215,0 0.466,-0.164 0.756,-0.302 0.29,-0.139 0.605,-0.278 0.945,-0.278 0.655,0 1.008,0.617 1.097,1.197 z" />
      </g>
      <g
         transform="translate(357.4761,541.8418)"
         id="g460"
         style="fill:#000000">
        <path
           inkscape:connector-curvature="0"
           id="path462"
           style="fill:#000000;fill-opacity:1;fill-rule:evenodd;stroke:none"
           d="M 0,0 C 0.126,1.185 0.844,2.318 2.143,2.318 3.428,2.318 4.171,1.197 4.209,0 Z m 5.002,-0.668 c 0.063,1.827 -0.769,3.654 -2.859,3.654 -2.067,0 -2.937,-1.726 -2.937,-3.439 0,-1.853 0.87,-3.44 2.937,-3.44 1.637,0 2.494,0.856 2.834,2.33 H 4.184 C 3.932,-2.545 3.301,-3.226 2.143,-3.226 0.617,-3.226 0.013,-1.827 0,-0.668 Z" />
      </g>
      <g
         transform="translate(368.1079,542.7363)"
         id="g464"
         style="fill:#000000">
        <path
           inkscape:connector-curvature="0"
           id="path466"
           style="fill:#000000;fill-opacity:1;fill-rule:evenodd;stroke:none"
           d="m 0,0 c -0.051,1.412 -1.084,2.092 -2.382,2.092 -1.146,0 -2.444,-0.504 -2.444,-1.827 0,-1.109 0.781,-1.462 1.814,-1.739 l 1.021,-0.227 c 0.719,-0.176 1.424,-0.428 1.424,-1.184 0,-0.907 -1.034,-1.235 -1.777,-1.235 -1.058,0 -1.852,0.555 -1.915,1.626 h -0.794 c 0.126,-1.588 1.159,-2.294 2.671,-2.294 1.21,0 2.609,0.542 2.609,1.953 0,1.134 -0.946,1.664 -1.853,1.802 l -1.059,0.24 c -0.541,0.138 -1.347,0.39 -1.347,1.096 0,0.843 0.832,1.121 1.537,1.121 0.907,0 1.663,-0.441 1.701,-1.424 z" />
      </g>
      <g
         transform="translate(373.1968,541.8418)"
         id="g468"
         style="fill:#000000">
        <path
           inkscape:connector-curvature="0"
           id="path470"
           style="fill:#000000;fill-opacity:1;fill-rule:evenodd;stroke:none"
           d="M 0,0 C 0.126,1.185 0.844,2.318 2.142,2.318 3.427,2.318 4.17,1.197 4.208,0 Z m 5.002,-0.668 c 0.062,1.827 -0.769,3.654 -2.86,3.654 -2.067,0 -2.936,-1.726 -2.936,-3.439 0,-1.853 0.869,-3.44 2.936,-3.44 1.637,0 2.495,0.856 2.835,2.33 H 4.183 C 3.931,-2.545 3.301,-3.226 2.142,-3.226 0.617,-3.226 0.013,-1.827 0,-0.668 Z" />
      </g>
      <path
         inkscape:connector-curvature="0"
         id="path472"
         style="fill:#000000;fill-opacity:1;fill-rule:evenodd;stroke:none"
         d="m 382.529,545.861 h 0.793 v 1.272 h -0.793 z m 0,-7.723 h 0.793 v 6.501 h -0.793 z" />
      <g
         transform="translate(384.7056,538.1377)"
         id="g474"
         style="fill:#000000">
        <path
           inkscape:connector-curvature="0"
           id="path476"
           style="fill:#000000;fill-opacity:1;fill-rule:evenodd;stroke:none"
           d="m 0,0 h 0.794 v 3.792 c 0.024,1.273 0.781,2.23 2.041,2.23 1.285,0 1.65,-0.843 1.65,-1.965 V 0 H 5.279 V 4.183 C 5.279,5.733 4.725,6.69 2.897,6.69 1.978,6.69 1.108,6.161 0.818,5.38 H 0.794 V 6.501 H 0 Z" />
      </g>
      <g
         transform="translate(393.8638,544.6392)"
         id="g478"
         style="fill:#000000">
        <path
           inkscape:connector-curvature="0"
           id="path480"
           style="fill:#000000;fill-opacity:1;fill-rule:evenodd;stroke:none"
           d="m 0,0 h -1.286 v 0.567 c 0.014,0.706 -0.012,1.26 0.87,1.26 0.188,0 0.365,-0.025 0.579,-0.063 v 0.681 c -0.252,0.037 -0.44,0.05 -0.668,0.05 -1.271,0 -1.587,-0.782 -1.574,-1.903 V 0 h -1.109 v -0.667 h 1.109 v -5.834 h 0.793 v 5.834 H 0 Z" />
      </g>
      <g
         transform="translate(397.2378,544.1602)"
         id="g482"
         style="fill:#000000">
        <path
           inkscape:connector-curvature="0"
           id="path484"
           style="fill:#000000;fill-opacity:1;fill-rule:evenodd;stroke:none"
           d="m 0,0 c 1.525,0 2.281,-1.386 2.281,-2.771 0,-1.387 -0.756,-2.773 -2.281,-2.773 -1.524,0 -2.28,1.386 -2.28,2.773 C -2.28,-1.386 -1.524,0 0,0 m 0,0.668 c -1.99,0 -3.074,-1.575 -3.074,-3.439 0,-1.866 1.084,-3.44 3.074,-3.44 1.991,0 3.074,1.574 3.074,3.44 0,1.864 -1.083,3.439 -3.074,3.439" />
      </g>
      <g
         transform="translate(401.3696,538.1377)"
         id="g486"
         style="fill:#000000">
        <path
           inkscape:connector-curvature="0"
           id="path488"
           style="fill:#000000;fill-opacity:1;fill-rule:evenodd;stroke:none"
           d="m 0,0 h 0.794 v 3.465 c 0,1.348 0.982,2.407 2.419,2.331 V 6.59 C 2.041,6.64 1.159,6.022 0.756,4.977 H 0.73 V 6.501 H 0 Z" />
      </g>
      <g
         transform="translate(405.2124,538.1377)"
         id="g490"
         style="fill:#000000">
        <path
           inkscape:connector-curvature="0"
           id="path492"
           style="fill:#000000;fill-opacity:1;fill-rule:evenodd;stroke:none"
           d="m 0,0 h 0.794 v 3.629 c 0.013,1.36 0.566,2.393 1.94,2.393 1.008,0 1.373,-0.73 1.361,-1.612 V 0 h 0.794 v 3.679 c 0,1.21 0.39,2.343 1.763,2.343 1.135,0 1.537,-0.579 1.537,-1.65 V 0 h 0.794 v 4.41 c 0,1.537 -0.73,2.28 -2.154,2.28 C 5.973,6.69 5.153,6.274 4.763,5.418 4.523,6.274 3.755,6.69 2.897,6.69 1.864,6.69 1.185,6.187 0.769,5.405 H 0.73 V 6.501 H 0 Z" />
      </g>
      <g
         transform="translate(416.2974,542.6484)"
         id="g494"
         style="fill:#000000">
        <path
           inkscape:connector-curvature="0"
           id="path496"
           style="fill:#000000;fill-opacity:1;fill-rule:evenodd;stroke:none"
           d="m 0,0 c 0.025,1.059 0.756,1.512 1.739,1.512 0.932,0 1.701,-0.265 1.701,-1.336 0,-0.718 -0.366,-0.806 -1.021,-0.882 -1.713,-0.201 -3.49,-0.264 -3.49,-2.091 0,-1.31 0.983,-1.903 2.179,-1.903 1.248,0 1.815,0.479 2.37,1.323 h 0.025 c 0,-0.681 0.126,-1.134 0.933,-1.134 0.213,0 0.339,0.013 0.516,0.051 v 0.668 C 4.889,-3.818 4.788,-3.843 4.7,-3.843 c -0.315,0 -0.467,0.176 -0.467,0.479 V 0.088 C 4.233,1.827 2.986,2.18 1.84,2.18 0.353,2.18 -0.718,1.524 -0.794,0 Z m 3.44,-1.991 c 0.012,-1.273 -1.058,-2.041 -2.268,-2.041 -0.743,0 -1.449,0.491 -1.449,1.285 0,1.272 1.675,1.26 3.024,1.5 0.214,0.037 0.566,0.101 0.668,0.289 H 3.44 Z M 3.352,4.675 H 2.369 L 1.046,2.898 h 0.642 z" />
      </g>
      <g
         transform="translate(423.2495,546.5923)"
         id="g498"
         style="fill:#000000">
        <path
           inkscape:connector-curvature="0"
           id="path500"
           style="fill:#000000;fill-opacity:1;fill-rule:evenodd;stroke:none"
           d="m 0,0 h -0.793 v -1.953 h -1.135 v -0.668 h 1.135 v -4.448 c -0.014,-1.108 0.353,-1.461 1.41,-1.461 0.24,0 0.467,0.025 0.706,0.025 v 0.68 C 1.097,-7.85 0.87,-7.863 0.643,-7.863 0.076,-7.825 0,-7.522 0,-7.005 v 4.384 h 1.323 v 0.668 H 0 Z" />
      </g>
      <path
         inkscape:connector-curvature="0"
         id="path502"
         style="fill:#000000;fill-opacity:1;fill-rule:evenodd;stroke:none"
         d="m 425.605,545.861 h 0.794 v 1.272 h -0.794 z m 0,-7.723 h 0.794 v 6.501 h -0.794 z" />
      <g
         transform="translate(433.1753,542.5981)"
         id="g504"
         style="fill:#000000">
        <path
           inkscape:connector-curvature="0"
           id="path506"
           style="fill:#000000;fill-opacity:1;fill-rule:evenodd;stroke:none"
           d="m 0,0 c -0.177,1.487 -1.248,2.23 -2.634,2.23 -1.991,0 -3.075,-1.575 -3.075,-3.439 0,-1.866 1.084,-3.44 3.075,-3.44 1.449,0 2.47,0.957 2.684,2.52 h -0.794 c -0.101,-1.084 -0.907,-1.853 -1.89,-1.853 -1.524,0 -2.28,1.386 -2.28,2.773 0,1.385 0.756,2.771 2.28,2.771 1.033,0 1.625,-0.592 1.839,-1.562 z" />
      </g>
      <g
         transform="translate(434.9233,542.6484)"
         id="g508"
         style="fill:#000000">
        <path
           inkscape:connector-curvature="0"
           id="path510"
           style="fill:#000000;fill-opacity:1;fill-rule:evenodd;stroke:none"
           d="m 0,0 c 0.025,1.059 0.756,1.512 1.738,1.512 0.933,0 1.701,-0.265 1.701,-1.336 0,-0.718 -0.365,-0.806 -1.02,-0.882 -1.714,-0.201 -3.49,-0.264 -3.49,-2.091 0,-1.31 0.983,-1.903 2.18,-1.903 1.247,0 1.814,0.479 2.369,1.323 h 0.025 c 0,-0.681 0.126,-1.134 0.933,-1.134 0.213,0 0.339,0.013 0.515,0.051 v 0.668 C 4.889,-3.818 4.788,-3.843 4.699,-3.843 c -0.314,0 -0.466,0.176 -0.466,0.479 V 0.088 C 4.233,1.827 2.986,2.18 1.84,2.18 0.353,2.18 -0.719,1.524 -0.794,0 Z m 3.439,-1.991 c 0.013,-1.273 -1.058,-2.041 -2.267,-2.041 -0.744,0 -1.449,0.491 -1.449,1.285 0,1.272 1.675,1.26 3.024,1.5 0.214,0.037 0.566,0.101 0.667,0.289 h 0.025 z" />
      </g>
      <g
         transform="translate(278.8608,559.7344)"
         id="g512"
         style="fill:#000000">
        <path
           inkscape:connector-curvature="0"
           id="path514"
           style="fill:#000000;fill-opacity:1;fill-rule:evenodd;stroke:none"
           d="m 0,0 h -0.794 v -3.73 h -0.025 c -0.34,0.932 -1.285,1.424 -2.255,1.424 -1.979,0 -2.924,-1.6 -2.924,-3.44 0,-1.84 0.945,-3.44 2.924,-3.44 0.944,0 1.977,0.58 2.318,1.424 h 0.025 V -8.997 H 0 Z m -5.204,-5.746 c 0,1.349 0.617,2.772 2.13,2.772 1.687,0 2.28,-1.423 2.28,-2.772 0,-1.348 -0.593,-2.772 -2.28,-2.772 -1.513,0 -2.13,1.424 -2.13,2.772" />
      </g>
      <g
         transform="translate(280.7124,554.4424)"
         id="g516"
         style="fill:#000000">
        <path
           inkscape:connector-curvature="0"
           id="path518"
           style="fill:#000000;fill-opacity:1;fill-rule:evenodd;stroke:none"
           d="M 0,0 C 0.126,1.184 0.844,2.318 2.142,2.318 3.427,2.318 4.17,1.197 4.208,0 Z m 5.002,-0.668 c 0.062,1.827 -0.769,3.654 -2.86,3.654 -2.067,0 -2.936,-1.726 -2.936,-3.44 0,-1.853 0.869,-3.44 2.936,-3.44 1.638,0 2.495,0.857 2.835,2.331 H 4.184 C 3.931,-2.546 3.301,-3.226 2.142,-3.226 0.617,-3.226 0.013,-1.827 0,-0.668 Z" />
      </g>
      <g
         transform="translate(286.6567,548.3311)"
         id="g520"
         style="fill:#000000">
        <path
           inkscape:connector-curvature="0"
           id="path522"
           style="fill:#000000;fill-opacity:1;fill-rule:evenodd;stroke:none"
           d="m 0,0 h 0.794 v 3.642 h 0.025 c 0.34,-0.933 1.285,-1.424 2.255,-1.424 1.979,0 2.923,1.599 2.923,3.439 0,1.84 -0.944,3.44 -2.923,3.44 -1.046,0 -1.953,-0.541 -2.318,-1.424 H 0.73 V 8.908 H 0 Z m 5.204,5.657 c 0,-1.348 -0.618,-2.772 -2.13,-2.772 -1.688,0 -2.28,1.424 -2.28,2.772 0,1.475 0.529,2.772 2.28,2.772 1.512,0 2.13,-1.423 2.13,-2.772" />
      </g>
      <g
         transform="translate(294.481,555.2485)"
         id="g524"
         style="fill:#000000">
        <path
           inkscape:connector-curvature="0"
           id="path526"
           style="fill:#000000;fill-opacity:1;fill-rule:evenodd;stroke:none"
           d="m 0,0 c 0.025,1.058 0.756,1.512 1.738,1.512 0.933,0 1.701,-0.264 1.701,-1.336 0,-0.718 -0.365,-0.806 -1.02,-0.882 -1.714,-0.202 -3.49,-0.264 -3.49,-2.091 0,-1.311 0.982,-1.903 2.179,-1.903 1.248,0 1.815,0.479 2.37,1.323 h 0.025 c 0,-0.68 0.126,-1.134 0.932,-1.134 0.214,0 0.34,0.012 0.516,0.051 v 0.668 C 4.889,-3.818 4.788,-3.843 4.7,-3.843 c -0.315,0 -0.467,0.176 -0.467,0.479 V 0.088 C 4.233,1.827 2.986,2.18 1.839,2.18 0.353,2.18 -0.719,1.524 -0.794,0 Z m 3.439,-1.991 c 0.013,-1.273 -1.058,-2.041 -2.267,-2.041 -0.743,0 -1.449,0.491 -1.449,1.285 0,1.273 1.675,1.26 3.024,1.499 0.214,0.039 0.566,0.101 0.667,0.29 h 0.025 z" />
      </g>
      <g
         transform="translate(300.1733,550.7373)"
         id="g528"
         style="fill:#000000">
        <path
           inkscape:connector-curvature="0"
           id="path530"
           style="fill:#000000;fill-opacity:1;fill-rule:evenodd;stroke:none"
           d="m 0,0 h 0.794 v 3.465 c 0,1.348 0.982,2.407 2.419,2.331 V 6.59 C 2.041,6.641 1.159,6.023 0.756,4.978 H 0.73 V 6.502 H 0 Z" />
      </g>
      <g
         transform="translate(305.2759,559.1924)"
         id="g532"
         style="fill:#000000">
        <path
           inkscape:connector-curvature="0"
           id="path534"
           style="fill:#000000;fill-opacity:1;fill-rule:evenodd;stroke:none"
           d="m 0,0 h -0.794 v -1.953 h -1.134 v -0.668 h 1.134 v -4.448 c -0.013,-1.109 0.353,-1.461 1.411,-1.461 0.239,0 0.466,0.025 0.706,0.025 v 0.68 C 1.096,-7.85 0.869,-7.862 0.643,-7.862 0.075,-7.825 0,-7.522 0,-7.006 v 4.385 h 1.323 v 0.668 H 0 Z" />
      </g>
      <g
         transform="translate(308.3364,555.2485)"
         id="g536"
         style="fill:#000000">
        <path
           inkscape:connector-curvature="0"
           id="path538"
           style="fill:#000000;fill-opacity:1;fill-rule:evenodd;stroke:none"
           d="m 0,0 c 0.025,1.058 0.757,1.512 1.739,1.512 0.932,0 1.701,-0.264 1.701,-1.336 0,-0.718 -0.366,-0.806 -1.02,-0.882 -1.714,-0.202 -3.49,-0.264 -3.49,-2.091 0,-1.311 0.982,-1.903 2.179,-1.903 1.247,0 1.815,0.479 2.369,1.323 h 0.025 c 0,-0.68 0.126,-1.134 0.933,-1.134 0.213,0 0.339,0.012 0.516,0.051 v 0.668 C 4.89,-3.818 4.788,-3.843 4.7,-3.843 c -0.315,0 -0.467,0.176 -0.467,0.479 V 0.088 C 4.233,1.827 2.986,2.18 1.84,2.18 0.354,2.18 -0.718,1.524 -0.794,0 Z m 3.44,-1.991 c 0.013,-1.273 -1.058,-2.041 -2.268,-2.041 -0.743,0 -1.448,0.491 -1.448,1.285 0,1.273 1.675,1.26 3.023,1.499 0.215,0.039 0.567,0.101 0.668,0.29 H 3.44 Z" />
      </g>
      <g
         transform="translate(314.0288,550.7373)"
         id="g540"
         style="fill:#000000">
        <path
           inkscape:connector-curvature="0"
           id="path542"
           style="fill:#000000;fill-opacity:1;fill-rule:evenodd;stroke:none"
           d="m 0,0 h 0.794 v 3.629 c 0.013,1.361 0.567,2.394 1.94,2.394 1.008,0 1.373,-0.731 1.362,-1.613 V 0 h 0.793 v 3.68 c 0,1.209 0.39,2.343 1.764,2.343 1.134,0 1.537,-0.58 1.537,-1.65 V 0 H 8.984 V 4.41 C 8.984,5.947 8.253,6.691 6.83,6.691 5.973,6.691 5.153,6.275 4.764,5.418 4.523,6.275 3.755,6.691 2.898,6.691 1.865,6.691 1.185,6.187 0.769,5.406 H 0.73 V 6.502 H 0 Z" />
      </g>
      <g
         transform="translate(324.8628,554.4424)"
         id="g544"
         style="fill:#000000">
        <path
           inkscape:connector-curvature="0"
           id="path546"
           style="fill:#000000;fill-opacity:1;fill-rule:evenodd;stroke:none"
           d="M 0,0 C 0.125,1.184 0.844,2.318 2.142,2.318 3.427,2.318 4.17,1.197 4.208,0 Z m 5.002,-0.668 c 0.062,1.827 -0.769,3.654 -2.86,3.654 -2.067,0 -2.936,-1.726 -2.936,-3.44 0,-1.853 0.869,-3.44 2.936,-3.44 1.637,0 2.495,0.857 2.835,2.331 H 4.183 C 3.931,-2.546 3.301,-3.226 2.142,-3.226 0.617,-3.226 0.012,-1.827 0,-0.668 Z" />
      </g>
      <g
         transform="translate(330.7944,550.7373)"
         id="g548"
         style="fill:#000000">
        <path
           inkscape:connector-curvature="0"
           id="path550"
           style="fill:#000000;fill-opacity:1;fill-rule:evenodd;stroke:none"
           d="m 0,0 h 0.793 v 3.793 c 0.025,1.272 0.781,2.23 2.042,2.23 1.285,0 1.65,-0.844 1.65,-1.965 V 0 h 0.794 v 4.184 c 0,1.549 -0.554,2.507 -2.382,2.507 -0.919,0 -1.789,-0.529 -2.079,-1.31 H 0.793 V 6.502 H 0 Z" />
      </g>
      <g
         transform="translate(338.7046,559.1924)"
         id="g552"
         style="fill:#000000">
        <path
           inkscape:connector-curvature="0"
           id="path554"
           style="fill:#000000;fill-opacity:1;fill-rule:evenodd;stroke:none"
           d="m 0,0 h -0.794 v -1.953 h -1.134 v -0.668 h 1.134 v -4.448 c -0.013,-1.109 0.354,-1.461 1.411,-1.461 0.24,0 0.467,0.025 0.706,0.025 v 0.68 C 1.097,-7.85 0.87,-7.862 0.643,-7.862 0.076,-7.825 0,-7.522 0,-7.006 v 4.385 h 1.323 v 0.668 H 0 Z" />
      </g>
      <g
         transform="translate(343.7944,556.7603)"
         id="g556"
         style="fill:#000000">
        <path
           inkscape:connector-curvature="0"
           id="path558"
           style="fill:#000000;fill-opacity:1;fill-rule:evenodd;stroke:none"
           d="m 0,0 c 1.524,0 2.28,-1.386 2.28,-2.772 0,-1.386 -0.756,-2.772 -2.28,-2.772 -1.524,0 -2.28,1.386 -2.28,2.772 C -2.28,-1.386 -1.524,0 0,0 m 0,0.668 c -1.991,0 -3.074,-1.575 -3.074,-3.44 0,-1.865 1.083,-3.439 3.074,-3.439 1.991,0 3.074,1.574 3.074,3.439 0,1.865 -1.083,3.44 -3.074,3.44" />
      </g>
      <g
         transform="translate(357.021,559.7344)"
         id="g560"
         style="fill:#000000">
        <path
           inkscape:connector-curvature="0"
           id="path562"
           style="fill:#000000;fill-opacity:1;fill-rule:evenodd;stroke:none"
           d="m 0,0 h -0.793 v -3.73 h -0.025 c -0.341,0.932 -1.286,1.424 -2.256,1.424 -1.978,0 -2.923,-1.6 -2.923,-3.44 0,-1.84 0.945,-3.44 2.923,-3.44 0.945,0 1.978,0.58 2.318,1.424 H -0.73 V -8.997 H 0 Z m -5.203,-5.746 c 0,1.349 0.617,2.772 2.129,2.772 1.688,0 2.281,-1.423 2.281,-2.772 0,-1.348 -0.593,-2.772 -2.281,-2.772 -1.512,0 -2.129,1.424 -2.129,2.772" />
      </g>
      <g
         transform="translate(358.8726,554.4424)"
         id="g564"
         style="fill:#000000">
        <path
           inkscape:connector-curvature="0"
           id="path566"
           style="fill:#000000;fill-opacity:1;fill-rule:evenodd;stroke:none"
           d="M 0,0 C 0.127,1.184 0.845,2.318 2.143,2.318 3.428,2.318 4.171,1.197 4.209,0 Z m 5.003,-0.668 c 0.062,1.827 -0.769,3.654 -2.86,3.654 -2.067,0 -2.936,-1.726 -2.936,-3.44 0,-1.853 0.869,-3.44 2.936,-3.44 1.638,0 2.495,0.857 2.835,2.331 H 4.184 C 3.932,-2.546 3.302,-3.226 2.143,-3.226 0.618,-3.226 0.014,-1.827 0,-0.668 Z" />
      </g>
      <g
         transform="translate(368.6587,554.4424)"
         id="g568"
         style="fill:#000000">
        <path
           inkscape:connector-curvature="0"
           id="path570"
           style="fill:#000000;fill-opacity:1;fill-rule:evenodd;stroke:none"
           d="M 0,0 C 0.126,1.184 0.845,2.318 2.142,2.318 3.427,2.318 4.171,1.197 4.208,0 Z m 5.003,-0.668 c 0.062,1.827 -0.77,3.654 -2.861,3.654 -2.067,0 -2.936,-1.726 -2.936,-3.44 0,-1.853 0.869,-3.44 2.936,-3.44 1.638,0 2.495,0.857 2.836,2.331 H 4.184 C 3.932,-2.546 3.302,-3.226 2.142,-3.226 0.617,-3.226 0.013,-1.827 0,-0.668 Z" />
      </g>
      <path
         inkscape:connector-curvature="0"
         id="path572"
         style="fill:#000000;fill-opacity:1;fill-rule:evenodd;stroke:none"
         d="m 374.616,550.737 h 0.794 v 8.997 h -0.794 z" />
      <g
         transform="translate(377.271,554.4424)"
         id="g574"
         style="fill:#000000">
        <path
           inkscape:connector-curvature="0"
           id="path576"
           style="fill:#000000;fill-opacity:1;fill-rule:evenodd;stroke:none"
           d="M 0,0 C 0.126,1.184 0.845,2.318 2.143,2.318 3.428,2.318 4.171,1.197 4.209,0 Z m 5.002,-0.668 c 0.063,1.827 -0.768,3.654 -2.859,3.654 -2.067,0 -2.936,-1.726 -2.936,-3.44 0,-1.853 0.869,-3.44 2.936,-3.44 1.637,0 2.494,0.857 2.835,2.331 H 4.184 C 3.932,-2.546 3.302,-3.226 2.143,-3.226 0.617,-3.226 0.013,-1.827 0,-0.668 Z" />
      </g>
      <g
         transform="translate(388.5952,555.1982)"
         id="g578"
         style="fill:#000000">
        <path
           inkscape:connector-curvature="0"
           id="path580"
           style="fill:#000000;fill-opacity:1;fill-rule:evenodd;stroke:none"
           d="m 0,0 c -0.176,1.486 -1.247,2.23 -2.633,2.23 -1.99,0 -3.074,-1.575 -3.074,-3.44 0,-1.865 1.084,-3.439 3.074,-3.439 1.449,0 2.47,0.957 2.684,2.519 h -0.794 c -0.101,-1.083 -0.907,-1.852 -1.89,-1.852 -1.524,0 -2.28,1.386 -2.28,2.772 0,1.386 0.756,2.772 2.28,2.772 1.033,0 1.625,-0.592 1.84,-1.562 z" />
      </g>
      <g
         transform="translate(390.8862,559.1924)"
         id="g582"
         style="fill:#000000">
        <path
           inkscape:connector-curvature="0"
           id="path584"
           style="fill:#000000;fill-opacity:1;fill-rule:evenodd;stroke:none"
           d="m 0,0 h -0.794 v -1.953 h -1.134 v -0.668 h 1.134 v -4.448 c -0.013,-1.109 0.353,-1.461 1.411,-1.461 0.239,0 0.467,0.025 0.706,0.025 v 0.68 C 1.096,-7.85 0.869,-7.862 0.643,-7.862 0.075,-7.825 0,-7.522 0,-7.006 v 4.385 h 1.323 v 0.668 H 0 Z" />
      </g>
      <g
         transform="translate(393.229,550.7373)"
         id="g586"
         style="fill:#000000">
        <path
           inkscape:connector-curvature="0"
           id="path588"
           style="fill:#000000;fill-opacity:1;fill-rule:evenodd;stroke:none"
           d="m 0,0 h 0.794 v 3.465 c 0,1.348 0.982,2.407 2.419,2.331 V 6.59 C 2.041,6.641 1.159,6.023 0.756,4.978 H 0.73 V 6.502 H 0 Z" />
      </g>
      <g
         transform="translate(399.8179,556.7603)"
         id="g590"
         style="fill:#000000">
        <path
           inkscape:connector-curvature="0"
           id="path592"
           style="fill:#000000;fill-opacity:1;fill-rule:evenodd;stroke:none"
           d="m 0,0 c 1.525,0 2.281,-1.386 2.281,-2.772 0,-1.386 -0.756,-2.772 -2.281,-2.772 -1.524,0 -2.28,1.386 -2.28,2.772 C -2.28,-1.386 -1.524,0 0,0 m 0,0.668 c -1.99,0 -3.074,-1.575 -3.074,-3.44 0,-1.865 1.084,-3.439 3.074,-3.439 1.991,0 3.075,1.574 3.075,3.439 0,1.865 -1.084,3.44 -3.075,3.44 M 1.563,3.163 H 0.58 L -0.743,1.386 H -0.1 Z" />
      </g>
      <g
         transform="translate(403.937,550.7373)"
         id="g594"
         style="fill:#000000">
        <path
           inkscape:connector-curvature="0"
           id="path596"
           style="fill:#000000;fill-opacity:1;fill-rule:evenodd;stroke:none"
           d="m 0,0 h 0.794 v 3.793 c 0.025,1.272 0.781,2.23 2.041,2.23 1.286,0 1.651,-0.844 1.651,-1.965 V 0 h 0.793 v 4.184 c 0,1.549 -0.553,2.507 -2.381,2.507 -0.919,0 -1.789,-0.529 -2.079,-1.31 H 0.794 V 6.502 H 0 Z" />
      </g>
      <path
         inkscape:connector-curvature="0"
         id="path598"
         style="fill:#000000;fill-opacity:1;fill-rule:evenodd;stroke:none"
         d="m 410.601,558.461 h 0.793 v 1.273 h -0.793 z m 0,-7.724 h 0.793 v 6.502 h -0.793 z" />
      <g
         transform="translate(418.1704,555.1982)"
         id="g600"
         style="fill:#000000">
        <path
           inkscape:connector-curvature="0"
           id="path602"
           style="fill:#000000;fill-opacity:1;fill-rule:evenodd;stroke:none"
           d="m 0,0 c -0.177,1.486 -1.247,2.23 -2.634,2.23 -1.99,0 -3.074,-1.575 -3.074,-3.44 0,-1.865 1.084,-3.439 3.074,-3.439 1.449,0 2.47,0.957 2.684,2.519 h -0.793 c -0.102,-1.083 -0.908,-1.852 -1.891,-1.852 -1.524,0 -2.28,1.386 -2.28,2.772 0,1.386 0.756,2.772 2.28,2.772 1.033,0 1.625,-0.592 1.84,-1.562 z" />
      </g>
      <g
         transform="translate(419.9185,555.2485)"
         id="g604"
         style="fill:#000000">
        <path
           inkscape:connector-curvature="0"
           id="path606"
           style="fill:#000000;fill-opacity:1;fill-rule:evenodd;stroke:none"
           d="m 0,0 c 0.025,1.058 0.757,1.512 1.739,1.512 0.932,0 1.701,-0.264 1.701,-1.336 0,-0.718 -0.365,-0.806 -1.02,-0.882 -1.714,-0.202 -3.491,-0.264 -3.491,-2.091 0,-1.311 0.983,-1.903 2.18,-1.903 1.247,0 1.815,0.479 2.369,1.323 h 0.025 c 0,-0.68 0.126,-1.134 0.933,-1.134 0.213,0 0.339,0.012 0.516,0.051 v 0.668 C 4.89,-3.818 4.788,-3.843 4.7,-3.843 c -0.315,0 -0.467,0.176 -0.467,0.479 V 0.088 C 4.233,1.827 2.986,2.18 1.84,2.18 0.353,2.18 -0.718,1.524 -0.794,0 Z m 3.44,-1.991 c 0.013,-1.273 -1.058,-2.041 -2.268,-2.041 -0.743,0 -1.448,0.491 -1.448,1.285 0,1.273 1.675,1.26 3.023,1.499 0.215,0.039 0.567,0.101 0.668,0.29 H 3.44 Z" />
      </g>
      <g
         transform="translate(426.0776,552.0732)"
         id="g608"
         style="fill:#000000">
        <path
           inkscape:connector-curvature="0"
           id="path610"
           style="fill:#000000;fill-opacity:1;fill-rule:evenodd;stroke:none"
           d="M 0,0 V -1.336 H 0.529 C 0.555,-1.751 0.365,-2.369 -0.051,-2.52 v -0.542 c 0.756,0.214 1.096,0.983 1.11,1.713 V 0 Z" />
      </g>
    </g>
  </g>
</svg>
