<!DOCTYPE svg PUBLIC "-//W3C//DTD SVG 20010904//EN" "http://www.w3.org/TR/2001/REC-SVG-20010904/DTD/svg10.dtd">
<svg version="1.0" xmlns="http://www.w3.org/2000/svg" width="250px" height="300px" viewBox="0 0 2500 3000" preserveAspectRatio="xMidYMid meet">
<g id="layer1" fill="#201407" stroke="none">
 <path d="M1710 2345 c0 -8 9 -15 20 -15 11 0 20 7 20 15 0 8 -9 15 -20 15 -11 0 -20 -7 -20 -15z"/>
 </g>
<g id="layer2" fill="#ffffff" stroke="none">
 <path d="M1500 2815 c-113 -28 -222 -93 -296 -179 l-39 -45 -98 12 c-109 12 -395 -2 -567 -28 -52 -8 -129 -15 -171 -15 -90 0 -105 -10 -94 -67 4 -21 13 -49 20 -64 12 -22 12 -39 0 -113 -37 -229 -51 -659 -22 -710 6 -12 23 -70 38 -129 36 -140 90 -250 180 -362 81 -102 134 -201 174 -325 23 -72 29 -109 34 -250 7 -156 9 -169 38 -232 52 -112 149 -201 253 -232 68 -20 219 -21 286 -1 111 33 196 121 243 253 12 31 26 65 32 75 6 11 8 21 5 24 -3 3 1 18 9 34 9 16 15 55 15 90 0 61 1 62 47 102 25 23 64 54 87 70 76 54 136 119 136 148 0 39 -21 50 -112 60 -85 10 -144 24 -153 38 -2 5 14 51 36 102 22 52 47 128 55 169 8 41 28 116 44 166 26 81 54 222 62 308 3 25 10 31 64 51 221 79 376 314 361 545 -22 336 -349 583 -667 505z m225 -130 c167 -44 278 -167 308 -341 30 -173 -63 -359 -218 -435 -365 -180 -741 185 -572 555 80 175 289 271 482 221z"/>
 <path d="M1562 2548 c-8 -8 -12 -46 -12 -105 l0 -92 -102 -3 -103 -3 0 -65 0 -65 103 -3 102 -3 0 -92 c0 -59 4 -97 12 -105 16 -16 100 -16 116 0 8 8 12 46 12 105 l0 92 103 3 102 3 0 65 0 65 -102 3 -103 3 0 92 c0 59 -4 97 -12 105 -7 7 -33 12 -58 12 -25 0 -51 -5 -58 -12z"/>
 </g>
<g id="layer3" fill="#383837" stroke="none">
 <path d="M0 1500 l0 -1500 1250 0 1250 0 0 1500 0 1500 -1250 0 -1250 0 0 -1500z m1797 1277 c150 -52 267 -169 321 -320 38 -103 38 -251 0 -354 -52 -145 -180 -276 -311 -319 -67 -21 -87 -40 -87 -78 0 -55 -31 -208 -60 -301 -16 -50 -36 -124 -44 -165 -8 -41 -33 -117 -55 -169 -23 -52 -41 -99 -41 -103 0 -16 84 -46 145 -53 122 -12 125 -13 125 -43 0 -31 -40 -74 -130 -139 -30 -22 -61 -48 -69 -57 -8 -10 -27 -24 -43 -32 -26 -14 -28 -18 -28 -81 0 -61 -8 -104 -31 -158 -5 -11 -18 -46 -29 -77 -65 -178 -171 -249 -368 -249 -185 1 -302 72 -376 231 -28 61 -30 75 -37 230 -5 141 -11 178 -34 250 -40 124 -93 223 -174 325 -90 112 -144 222 -180 362 -15 59 -32 117 -38 129 -29 51 -15 481 22 710 12 75 12 91 0 114 -8 16 -17 46 -21 69 l-7 41 77 0 c42 0 120 6 174 14 226 34 544 43 652 20 22 -5 31 2 58 40 36 50 133 124 197 151 124 51 267 56 392 12z"/>
 <path d="M1511 2704 c-215 -58 -360 -278 -324 -490 41 -237 270 -406 497 -367 93 16 168 54 237 119 177 170 184 435 14 613 -114 120 -271 166 -424 125z m161 -266 l3 -103 35 -1 c19 0 65 -1 103 -2 l67 -2 0 -50 0 -49 -102 -3 -103 -3 -3 -102 -3 -103 -49 0 -49 0 -3 103 -3 102 -102 3 -103 3 0 49 0 49 103 3 102 3 3 103 3 102 49 0 49 0 3 -102z"/>
 </g>

</svg>