<!DOCTYPE svg PUBLIC "-//W3C//DTD SVG 20010904//EN" "http://www.w3.org/TR/2001/REC-SVG-20010904/DTD/svg10.dtd">
<svg version="1.0" xmlns="http://www.w3.org/2000/svg" width="250px" height="300px" viewBox="0 0 2500 3000" preserveAspectRatio="xMidYMid meet">
<g id="layer1" fill="#010000" stroke="none">
 <path d="M1503 2815 c-211 -46 -392 -241 -425 -457 -53 -353 267 -673 620 -620 293 45 508 331 464 620 -33 218 -215 412 -429 457 -83 18 -148 18 -230 0z m223 -129 c186 -49 314 -215 314 -406 0 -165 -95 -311 -248 -383 -62 -30 -75 -32 -173 -32 -101 0 -108 1 -180 37 -93 46 -158 112 -202 206 -30 62 -32 75 -32 172 0 97 2 110 32 172 44 93 110 161 197 203 39 18 82 35 96 38 54 9 147 6 196 -7z"/>
 <path d="M1567 2554 c-4 -4 -7 -54 -7 -110 l0 -103 -107 -3 -108 -3 0 -55 0 -55 107 -3 107 -3 3 -107 3 -107 55 0 55 0 3 107 3 107 107 3 107 3 0 55 0 55 -107 9 -107 8 -3 102 -3 101 -50 3 c-28 2 -54 0 -58 -4z"/>
 </g>
<g id="layer2" fill="#ff921e" stroke="none">
 <path d="M1530 2713 c-14 -2 -57 -20 -95 -38 -90 -43 -173 -128 -218 -222 -30 -63 -32 -76 -32 -173 0 -97 2 -110 32 -173 71 -150 216 -254 369 -264 44 -2 97 -1 119 4 l40 9 -1 87 -1 87 27 0 c34 0 54 22 45 50 -5 17 -1 21 25 26 63 13 60 73 -5 100 -19 7 -36 18 -40 24 -9 14 -108 13 -123 -2 -8 -8 -12 -47 -12 -110 l0 -98 -40 0 -40 0 0 98 c0 63 -4 102 -12 110 -8 8 -47 12 -110 12 l-98 0 0 40 0 40 98 0 c63 0 102 4 110 12 8 8 12 47 12 110 l0 98 40 0 39 0 3 -67 3 -68 33 3 c68 5 110 64 65 92 -16 9 -14 13 20 43 43 37 46 55 14 85 -19 18 -35 22 -85 22 -61 0 -61 0 -70 33 -7 29 -12 32 -48 33 -21 1 -50 0 -64 -3z"/>
 <path d="M735 2600 c-55 -5 -158 -16 -230 -24 -72 -9 -159 -17 -194 -19 -86 -3 -93 -15 -64 -100 21 -61 22 -66 8 -153 -39 -237 -50 -648 -20 -703 8 -14 24 -66 35 -114 39 -161 89 -259 203 -401 67 -83 114 -177 156 -311 28 -89 31 -112 31 -226 0 -188 38 -290 146 -389 72 -66 140 -92 256 -98 116 -6 202 13 273 60 52 34 115 124 145 206 11 31 24 64 27 72 4 8 8 22 9 30 1 8 7 28 13 43 6 16 11 53 11 84 0 54 2 57 47 96 25 23 64 54 87 70 69 50 136 120 136 143 0 34 -45 64 -96 64 -54 0 -137 17 -158 33 -15 11 -13 21 24 110 23 54 47 131 55 171 8 40 25 106 39 147 33 100 68 273 64 323 l-3 41 -75 -3 c-221 -10 -417 102 -510 292 -73 149 -77 311 -10 455 37 78 37 87 3 95 -49 11 -305 15 -408 6z"/>
 </g>
<g id="layer3" fill="#ffffff" stroke="none">
 <path d="M0 1500 l0 -1500 1250 0 1250 0 0 1500 0 1500 -1250 0 -1250 0 0 -1500z m1733 1295 c267 -56 450 -321 409 -592 -26 -170 -133 -317 -286 -394 -43 -21 -86 -39 -95 -39 -27 0 -41 -21 -41 -63 0 -54 -36 -227 -66 -316 -14 -41 -31 -107 -39 -147 -8 -40 -32 -117 -54 -170 -23 -53 -41 -101 -41 -106 0 -18 93 -49 163 -55 40 -3 80 -10 90 -15 44 -23 6 -79 -113 -165 -30 -22 -61 -48 -69 -57 -8 -10 -27 -24 -43 -32 -26 -14 -28 -19 -28 -76 0 -57 -11 -116 -31 -163 -4 -11 -19 -49 -33 -84 -71 -183 -174 -247 -386 -239 -86 4 -115 9 -161 30 -69 31 -118 74 -159 138 -53 83 -70 154 -70 299 0 114 -3 137 -31 226 -42 134 -89 228 -156 311 -114 142 -164 240 -203 401 -11 48 -27 100 -35 114 -30 55 -19 462 20 703 14 88 13 95 -5 144 -34 89 -32 92 58 92 42 0 122 7 177 15 191 27 461 40 570 26 92 -11 101 -10 113 6 37 53 122 126 183 158 116 61 234 77 362 50z"/>
 <path d="M1623 2703 c-3 -9 0 -28 8 -42 13 -23 22 -26 79 -29 100 -5 115 -29 53 -86 l-38 -34 23 -25 c21 -22 21 -25 6 -38 -9 -8 -33 -19 -53 -24 -34 -10 -36 -13 -36 -50 l0 -40 108 -9 107 -8 0 -39 0 -38 -47 -3 c-61 -4 -67 -24 -14 -45 23 -9 42 -20 43 -25 4 -26 0 -32 -32 -43 -31 -11 -35 -16 -32 -44 2 -30 1 -31 -38 -31 l-40 0 6 -87 c4 -49 11 -92 15 -98 15 -16 117 42 179 101 118 113 166 271 126 419 -40 152 -168 281 -320 321 -68 18 -95 18 -103 -3z"/>
 </g>

</svg>